Exetegue-Regular.ufo
<glyph name="quotedbl" format="2">
  <advance width="262.5"/>
  <unicode hex="0022"/>
  <outline>
    <contour>
      <point x="52.5" y="500" type="line"/>
      <point x="97.5" y="500" type="line"/>
      <point x="110" y="650" type="line"/>
      <point x="110" y="745" type="line"/>
      <point x="40" y="745" type="line"/>
      <point x="40" y="650" type="line"/>
    </contour>
    <contour>
      <point x="165" y="500" type="line"/>
      <point x="210" y="500" type="line"/>
      <point x="222.5" y="650" type="line"/>
      <point x="222.5" y="745" type="line"/>
      <point x="152.5" y="745" type="line"/>
      <point x="152.5" y="650" type="line"/>
    </contour>
  </outline>
</glyph>
<glyph name="numbersign" format="2">
  <advance width="375"/>
  <unicode hex="0023"/>
  <outline>
    <contour>
      <point x="71" y="0" type="line"/>
      <point x="133" y="0" type="line"/>
      <point x="183" y="745" type="line"/>
      <point x="121" y="745" type="line"/>
    </contour>
    <contour>
      <point x="191" y="0" type="line"/>
      <point x="253" y="0" type="line"/>
      <point x="303" y="745" type="line"/>
      <point x="241" y="745" type="line"/>
    </contour>
    <contour>
      <point x="41" y="478" type="line"/>
      <point x="350" y="478" type="line"/>
      <point x="354.5" y="537.5" type="line"/>
      <point x="45.5" y="537.5" type="line"/>
    </contour>
    <contour>
      <point x="21" y="222" type="line"/>
      <point x="330" y="222" type="line"/>
      <point x="334.5" y="281.5" type="line"/>
      <point x="25.5" y="281.5" type="line"/>
    </contour>
  </outline>
</glyph>
<glyph name="dollar" format="2">
  <advance width="290"/>
  <unicode hex="0024"/>
  <outline>
    <component base="S.alt" yOffset="62.5"/>
    <contour>
      <point x="110" y="0" type="line"/>
      <point x="180" y="0" type="line"/>
      <point x="180" y="72.5" type="line"/>
      <point x="110" y="72.5" type="line"/>
    </contour>
    <contour>
      <point x="110" y="667.5" type="line"/>
      <point x="180" y="667.5" type="line"/>
      <point x="180" y="745" type="line"/>
      <point x="110" y="745" type="line"/>
    </contour>
  </outline>
  <guideline angle="0" x="0" y="625"/>
  <guideline angle="0" x="0" y="635"/>
  <guideline angle="0" x="0" y="105"/>
  <guideline angle="0" x="0" y="115"/>
</glyph>
<glyph name="ampersand" format="2">
  <advance width="300"/>
  <unicode hex="0026"/>
  <outline>
    <contour>
      <point x="150" y="345" type="line"/>
      <point x="77" y="345"/>
      <point x="40" y="385.5"/>
      <point x="40" y="470" type="curve" smooth="yes"/>
      <point x="40" y="630" type="line" smooth="yes"/>
      <point x="40" y="713"/>
      <point x="76" y="755"/>
      <point x="150" y="755" type="curve" smooth="yes"/>
      <point x="222" y="755"/>
      <point x="260" y="715.5"/>
      <point x="260" y="630" type="curve" smooth="yes"/>
      <point x="260" y="504" type="line"/>
      <point x="190" y="504" type="line"/>
      <point x="190" y="640" type="line" smooth="yes"/>
      <point x="190" y="672.5"/>
      <point x="178" y="692.5"/>
      <point x="150" y="692.5" type="curve" smooth="yes"/>
      <point x="122" y="692.5"/>
      <point x="110" y="672.5"/>
      <point x="110" y="640" type="curve" smooth="yes"/>
      <point x="110" y="460" type="line" smooth="yes"/>
      <point x="110" y="427"/>
      <point x="122.5" y="407.5"/>
      <point x="150" y="407.5" type="curve"/>
    </contour>
    <contour>
      <point x="150" y="345" type="line"/>
      <point x="122.5" y="345"/>
      <point x="110" y="325.5"/>
      <point x="110" y="292.5" type="curve" smooth="yes"/>
      <point x="110" y="105" type="line" smooth="yes"/>
      <point x="110" y="72.5"/>
      <point x="122" y="52.5"/>
      <point x="150" y="52.5" type="curve" smooth="yes"/>
      <point x="178" y="52.5"/>
      <point x="190" y="72.5"/>
      <point x="190" y="105" type="curve" smooth="yes"/>
      <point x="190" y="366" type="line"/>
      <point x="260" y="366" type="line"/>
      <point x="260" y="115" type="line" smooth="yes"/>
      <point x="260" y="29.5"/>
      <point x="222" y="-10"/>
      <point x="150" y="-10" type="curve" smooth="yes"/>
      <point x="76" y="-10"/>
      <point x="40" y="32"/>
      <point x="40" y="115" type="curve" smooth="yes"/>
      <point x="40" y="282.5" type="line" smooth="yes"/>
      <point x="40" y="367"/>
      <point x="77" y="407.5"/>
      <point x="150" y="407.5" type="curve"/>
    </contour>
    <contour>
      <point x="287.5" y="345" type="line"/>
      <point x="150" y="345" type="line"/>
      <point x="150" y="407.5" type="line"/>
      <point x="287.5" y="407.5" type="line"/>
    </contour>
  </outline>
  <guideline angle="0" x="0" y="125"/>
  <guideline angle="90" x="25" y="0"/>
  <guideline angle="90" x="125" y="0"/>
  <guideline angle="90" x="175" y="0"/>
  <guideline angle="90" x="275" y="0"/>
</glyph>
<glyph name="quotesingle" format="2">
  <advance width="150"/>
  <unicode hex="0027"/>
  <outline>
    <contour>
      <point x="52.5" y="500" type="line"/>
      <point x="97.5" y="500" type="line"/>
      <point x="110" y="650" type="line"/>
      <point x="110" y="745" type="line"/>
      <point x="40" y="745" type="line"/>
      <point x="40" y="650" type="line"/>
    </contour>
  </outline>
</glyph>
<glyph name="parenleft" format="2">
  <advance width="188"/>
  <unicode hex="0028"/>
  <outline>
    <contour>
      <point x="98" y="781" type="line"/>
      <point x="98" y="781"/>
      <point x="45" y="650"/>
      <point x="45" y="372.5" type="curve" smooth="yes"/>
      <point x="45" y="95"/>
      <point x="98" y="-36"/>
      <point x="98" y="-36" type="curve"/>
      <point x="162" y="-14" type="line"/>
      <point x="162" y="-14"/>
      <point x="115" y="102"/>
      <point x="115" y="372.5" type="curve" smooth="yes"/>
      <point x="115" y="643"/>
      <point x="162" y="759"/>
      <point x="162" y="759" type="curve"/>
    </contour>
  </outline>
  <guideline angle="0" x="0" y="740"/>
</glyph>
<glyph name="parenright" format="2">
  <advance width="188"/>
  <unicode hex="0029"/>
  <outline>
    <contour>
      <point x="90" y="781" type="line"/>
      <point x="90" y="781"/>
      <point x="143" y="650"/>
      <point x="143" y="372.5" type="curve" smooth="yes"/>
      <point x="143" y="95"/>
      <point x="90" y="-36"/>
      <point x="90" y="-36" type="curve"/>
      <point x="26" y="-14" type="line"/>
      <point x="26" y="-14"/>
      <point x="73" y="102"/>
      <point x="73" y="372.5" type="curve" smooth="yes"/>
      <point x="73" y="643"/>
      <point x="26" y="759"/>
      <point x="26" y="759" type="curve"/>
    </contour>
  </outline>
  <guideline angle="0" x="0" y="740"/>
</glyph>
<glyph name="plus" format="2">
  <advance width="300"/>
  <unicode hex="002B"/>
  <outline>
    <contour>
      <point x="25" y="352.5" type="line"/>
      <point x="275" y="352.5" type="line"/>
      <point x="275" y="411.5" type="line"/>
      <point x="25" y="411.5" type="line"/>
    </contour>
    <contour>
      <point x="115" y="230" type="line"/>
      <point x="185" y="230" type="line"/>
      <point x="185" y="534" type="line"/>
      <point x="115" y="534" type="line"/>
    </contour>
  </outline>
</glyph>
<glyph name="comma" format="2">
  <advance width="150"/>
  <unicode hex="002C"/>
  <outline>
    <contour>
      <point x="40" y="0" type="line"/>
      <point x="65" y="0" type="line"/>
      <point x="45" y="-75" type="line"/>
      <point x="80" y="-75" type="line"/>
      <point x="110" y="7.5" type="line"/>
      <point x="110" y="97.5" type="line"/>
      <point x="40" y="97.5" type="line"/>
    </contour>
  </outline>
</glyph>
<glyph name="hyphen" format="2">
  <advance width="200"/>
  <unicode hex="002D"/>
  <outline>
    <contour>
      <point x="25" y="352.5" type="line"/>
      <point x="175" y="352.5" type="line"/>
      <point x="175" y="411.5" type="line"/>
      <point x="25" y="411.5" type="line"/>
    </contour>
  </outline>
</glyph>
<glyph name="period" format="2">
  <advance width="150"/>
  <unicode hex="002E"/>
  <outline>
    <contour>
      <point x="40" y="0" type="line"/>
      <point x="110" y="0" type="line"/>
      <point x="110" y="97.5" type="line"/>
      <point x="40" y="97.5" type="line"/>
    </contour>
  </outline>
</glyph>
<glyph name="slash" format="2">
  <advance width="260"/>
  <unicode hex="002F"/>
  <outline>
    <contour>
      <point x="55.5" y="0" type="line"/>
      <point x="124.5" y="0" type="line"/>
      <point x="199.5" y="745" type="line"/>
      <point x="130.5" y="745" type="line"/>
    </contour>
  </outline>
</glyph>
<glyph name="one" format="2">
  <advance width="205"/>
  <unicode hex="0031"/>
  <outline>
    <contour>
      <point x="25" y="685" type="line"/>
      <point x="25" y="625.5" type="line"/>
      <point x="95" y="625.5" type="line"/>
      <point x="95" y="0" type="line"/>
      <point x="165" y="0" type="line"/>
      <point x="165" y="745" type="line"/>
      <point x="112.5" y="745" type="line"/>
      <point x="112.5" y="704"/>
      <point x="87.5" y="685"/>
      <point x="45" y="685" type="curve" smooth="yes"/>
    </contour>
  </outline>
</glyph>
<glyph name="two" format="2">
  <advance width="290"/>
  <unicode hex="0032"/>
  <outline>
    <contour>
      <point x="105" y="486.5" type="line"/>
      <point x="105" y="640" type="line" smooth="yes"/>
      <point x="105" y="676"/>
      <point x="119.5" y="692.5"/>
      <point x="145" y="692.5" type="curve" smooth="yes"/>
      <point x="171" y="692.5"/>
      <point x="185" y="675.5"/>
      <point x="185" y="640" type="curve" smooth="yes"/>
      <point x="185" y="531" type="line" smooth="yes"/>
      <point x="185" y="519.5"/>
      <point x="182.5" y="501"/>
      <point x="178" y="490" type="curve"/>
      <point x="54" y="155" type="line" smooth="yes"/>
      <point x="41.5" y="122"/>
      <point x="35" y="99.5"/>
      <point x="35" y="80.5" type="curve" smooth="yes"/>
      <point x="35" y="59.5" type="line"/>
      <point x="105" y="59.5" type="line"/>
      <point x="105" y="85.5" type="line" smooth="yes"/>
      <point x="105" y="96"/>
      <point x="107.5" y="110"/>
      <point x="110" y="117.5" type="curve"/>
      <point x="236.5" y="457.5" type="line" smooth="yes"/>
      <point x="247" y="485"/>
      <point x="255" y="517"/>
      <point x="255" y="533.5" type="curve" smooth="yes"/>
      <point x="255" y="630" type="line" smooth="yes"/>
      <point x="255" y="703.5"/>
      <point x="226" y="755"/>
      <point x="145" y="755" type="curve" smooth="yes"/>
      <point x="64" y="755"/>
      <point x="35" y="703.5"/>
      <point x="35" y="630" type="curve" smooth="yes"/>
      <point x="35" y="486.5" type="line"/>
    </contour>
    <contour>
      <point x="35" y="0" type="line"/>
      <point x="255" y="0" type="line"/>
      <point x="255" y="59.5" type="line"/>
      <point x="35" y="59.5" type="line"/>
    </contour>
  </outline>
  <guideline angle="0" x="0" y="625"/>
  <guideline angle="0" x="0" y="635"/>
  <guideline angle="0" x="0" y="105"/>
  <guideline angle="0" x="0" y="115"/>
  <guideline angle="90" x="50" y="0"/>
  <guideline angle="90" x="240" y="0"/>
  <guideline angle="90" x="20" y="0"/>
</glyph>
<glyph name="three" format="2">
  <advance width="300"/>
  <unicode hex="0033"/>
  <outline>
    <contour>
      <point x="150" y="345" type="line"/>
      <point x="223" y="345"/>
      <point x="260" y="385.5"/>
      <point x="260" y="470" type="curve" smooth="yes"/>
      <point x="260" y="630" type="line" smooth="yes"/>
      <point x="260" y="713"/>
      <point x="224" y="755"/>
      <point x="150" y="755" type="curve" smooth="yes"/>
      <point x="78" y="755"/>
      <point x="40" y="715.5"/>
      <point x="40" y="630" type="curve" smooth="yes"/>
      <point x="40" y="504" type="line"/>
      <point x="110" y="504" type="line"/>
      <point x="110" y="640" type="line" smooth="yes"/>
      <point x="110" y="672.5"/>
      <point x="122" y="692.5"/>
      <point x="150" y="692.5" type="curve" smooth="yes"/>
      <point x="178" y="692.5"/>
      <point x="190" y="672.5"/>
      <point x="190" y="640" type="curve" smooth="yes"/>
      <point x="190" y="460" type="line" smooth="yes"/>
      <point x="190" y="427"/>
      <point x="177.5" y="407.5"/>
      <point x="150" y="407.5" type="curve"/>
    </contour>
    <contour>
      <point x="150" y="345" type="line"/>
      <point x="177.5" y="345"/>
      <point x="190" y="325.5"/>
      <point x="190" y="292.5" type="curve" smooth="yes"/>
      <point x="190" y="105" type="line" smooth="yes"/>
      <point x="190" y="72.5"/>
      <point x="178" y="52.5"/>
      <point x="150" y="52.5" type="curve" smooth="yes"/>
      <point x="122" y="52.5"/>
      <point x="110" y="72.5"/>
      <point x="110" y="105" type="curve" smooth="yes"/>
      <point x="110" y="251" type="line"/>
      <point x="40" y="251" type="line"/>
      <point x="40" y="115" type="line" smooth="yes"/>
      <point x="40" y="29.5"/>
      <point x="78" y="-10"/>
      <point x="150" y="-10" type="curve" smooth="yes"/>
      <point x="224" y="-10"/>
      <point x="260" y="32"/>
      <point x="260" y="115" type="curve" smooth="yes"/>
      <point x="260" y="282.5" type="line" smooth="yes"/>
      <point x="260" y="367"/>
      <point x="223" y="407.5"/>
      <point x="150" y="407.5" type="curve"/>
    </contour>
    <contour>
      <point x="100" y="345" type="line"/>
      <point x="150" y="345" type="line"/>
      <point x="150" y="407.5" type="line"/>
      <point x="100" y="407.5" type="line"/>
    </contour>
  </outline>
</glyph>
<glyph name="four" format="2">
  <advance width="280"/>
  <unicode hex="0034"/>
  <outline>
    <contour>
      <point x="172.5" y="0" type="line"/>
      <point x="242.5" y="0" type="line"/>
      <point x="242.5" y="645" type="line"/>
      <point x="172.5" y="645" type="line"/>
    </contour>
    <contour>
      <point x="22.5" y="200" type="line"/>
      <point x="212.5" y="200" type="line"/>
      <point x="212.5" y="259.5" type="line"/>
      <point x="92.5" y="259.5" type="line"/>
      <point x="22.5" y="249.5" type="line"/>
    </contour>
    <contour>
      <point x="22.5" y="249.5" type="line"/>
      <point x="92.5" y="259.5" type="line"/>
      <point x="122.5" y="745" type="line"/>
      <point x="52.5" y="745" type="line"/>
    </contour>
  </outline>
</glyph>
<glyph name="five" format="2">
  <advance width="300"/>
  <unicode hex="0035"/>
  <outline>
    <contour>
      <point x="40" y="251" type="line"/>
      <point x="40" y="115" type="line" smooth="yes"/>
      <point x="40" y="29.5"/>
      <point x="78" y="-10"/>
      <point x="150" y="-10" type="curve" smooth="yes"/>
      <point x="224" y="-10"/>
      <point x="260" y="32"/>
      <point x="260" y="115" type="curve" smooth="yes"/>
      <point x="260" y="390" type="line" smooth="yes"/>
      <point x="260" y="481.5"/>
      <point x="213.5" y="515"/>
      <point x="160" y="515" type="curve" smooth="yes"/>
      <point x="140" y="515"/>
      <point x="124" y="510"/>
      <point x="110" y="500.5" type="curve"/>
      <point x="110" y="685.5" type="line"/>
      <point x="250" y="685.5" type="line"/>
      <point x="250" y="745" type="line"/>
      <point x="40" y="745" type="line"/>
      <point x="40" y="383" type="line"/>
      <point x="110" y="383" type="line"/>
      <point x="110" y="406.5" type="line"/>
      <point x="111" y="436"/>
      <point x="122.5" y="455"/>
      <point x="150" y="455" type="curve" smooth="yes"/>
      <point x="177.5" y="455"/>
      <point x="190" y="435.5"/>
      <point x="190" y="402.5" type="curve" smooth="yes"/>
      <point x="190" y="105" type="line" smooth="yes"/>
      <point x="190" y="72.5"/>
      <point x="178" y="52.5"/>
      <point x="150" y="52.5" type="curve" smooth="yes"/>
      <point x="122" y="52.5"/>
      <point x="110" y="72.5"/>
      <point x="110" y="105" type="curve" smooth="yes"/>
      <point x="110" y="251" type="line"/>
    </contour>
  </outline>
  <guideline angle="90" x="245" y="0"/>
</glyph>
<glyph name="six" format="2">
  <advance width="300"/>
  <unicode hex="0036"/>
  <outline>
    <contour>
      <point x="160" y="505" type="curve" smooth="yes"/>
      <point x="140" y="505"/>
      <point x="124" y="500"/>
      <point x="110" y="490.5" type="curve"/>
      <point x="110" y="640" type="line" smooth="yes"/>
      <point x="110" y="672"/>
      <point x="121.5" y="692.5"/>
      <point x="150" y="692.5" type="curve" smooth="yes"/>
      <point x="177.5" y="692.5"/>
      <point x="190" y="673"/>
      <point x="190" y="640" type="curve" smooth="yes"/>
      <point x="190" y="555" type="line"/>
      <point x="260" y="555" type="line"/>
      <point x="260" y="630" type="line" smooth="yes"/>
      <point x="260" y="714.5"/>
      <point x="223" y="755"/>
      <point x="150" y="755" type="curve" smooth="yes"/>
      <point x="75" y="755"/>
      <point x="40" y="711.5"/>
      <point x="40" y="630" type="curve" smooth="yes"/>
      <point x="40" y="115" type="line" smooth="yes"/>
      <point x="40" y="29.5"/>
      <point x="78" y="-10"/>
      <point x="150" y="-10" type="curve" smooth="yes"/>
      <point x="224" y="-10"/>
      <point x="260" y="32"/>
      <point x="260" y="115" type="curve" smooth="yes"/>
      <point x="260" y="380" type="line" smooth="yes"/>
      <point x="260" y="471.5"/>
      <point x="213.5" y="505"/>
    </contour>
    <contour>
      <point x="190" y="105" type="line" smooth="yes"/>
      <point x="190" y="72.5"/>
      <point x="178" y="52.5"/>
      <point x="150" y="52.5" type="curve" smooth="yes"/>
      <point x="122" y="52.5"/>
      <point x="110" y="72.5"/>
      <point x="110" y="105" type="curve" smooth="yes"/>
      <point x="110" y="396.5" type="line"/>
      <point x="111" y="426"/>
      <point x="122.5" y="445"/>
      <point x="150" y="445" type="curve" smooth="yes"/>
      <point x="177.5" y="445"/>
      <point x="190" y="425.5"/>
      <point x="190" y="392.5" type="curve" smooth="yes"/>
    </contour>
  </outline>
</glyph>
<glyph name="seven" format="2">
  <advance width="237.5"/>
  <unicode hex="0037"/>
  <outline>
    <contour>
      <point x="17.5" y="685.5" type="line"/>
      <point x="141.5" y="685.5" type="line"/>
      <point x="212.5" y="695.5" type="line"/>
      <point x="212.5" y="745" type="line"/>
      <point x="17.5" y="745" type="line"/>
    </contour>
    <contour>
      <point x="57" y="0" type="line"/>
      <point x="127" y="0" type="line"/>
      <point x="212.5" y="695.5" type="line"/>
      <point x="141.5" y="685.5" type="line"/>
    </contour>
  </outline>
  <guideline angle="90" x="190" y="0"/>
  <guideline angle="90" x="40" y="0"/>
</glyph>
<glyph name="eight" format="2">
  <advance width="300"/>
  <unicode hex="0038"/>
  <outline>
    <contour>
      <point x="150" y="-10" type="curve" smooth="yes"/>
      <point x="225" y="-10"/>
      <point x="260" y="33.5"/>
      <point x="260" y="115" type="curve" smooth="yes"/>
      <point x="260" y="292.5" type="line" smooth="yes"/>
      <point x="260" y="378"/>
      <point x="222" y="417.5"/>
      <point x="150" y="417.5" type="curve" smooth="yes"/>
      <point x="76" y="417.5"/>
      <point x="40" y="375.5"/>
      <point x="40" y="292.5" type="curve" smooth="yes"/>
      <point x="40" y="115" type="line" smooth="yes"/>
      <point x="40" y="30.5"/>
      <point x="77" y="-10"/>
    </contour>
    <contour>
      <point x="110" y="322.5" type="line" smooth="yes"/>
      <point x="110" y="355"/>
      <point x="122" y="375"/>
      <point x="150" y="375" type="curve" smooth="yes"/>
      <point x="178" y="375"/>
      <point x="190" y="355"/>
      <point x="190" y="322.5" type="curve" smooth="yes"/>
      <point x="190" y="105" type="line" smooth="yes"/>
      <point x="190" y="73"/>
      <point x="178.5" y="52.5"/>
      <point x="150" y="52.5" type="curve" smooth="yes"/>
      <point x="122.5" y="52.5"/>
      <point x="110" y="72"/>
      <point x="110" y="105" type="curve" smooth="yes"/>
    </contour>
    <contour>
      <point x="150" y="755" type="curve" smooth="yes"/>
      <point x="75" y="755"/>
      <point x="40" y="711.5"/>
      <point x="40" y="630" type="curve" smooth="yes"/>
      <point x="40" y="520" type="line" smooth="yes"/>
      <point x="40" y="434.5"/>
      <point x="78" y="395"/>
      <point x="150" y="395" type="curve" smooth="yes"/>
      <point x="224" y="395"/>
      <point x="260" y="437"/>
      <point x="260" y="520" type="curve" smooth="yes"/>
      <point x="260" y="630" type="line" smooth="yes"/>
      <point x="260" y="714.5"/>
      <point x="223" y="755"/>
    </contour>
    <contour>
      <point x="190" y="490" type="line" smooth="yes"/>
      <point x="190" y="457.5"/>
      <point x="178" y="437.5"/>
      <point x="150" y="437.5" type="curve" smooth="yes"/>
      <point x="122" y="437.5"/>
      <point x="110" y="457.5"/>
      <point x="110" y="490" type="curve" smooth="yes"/>
      <point x="110" y="640" type="line" smooth="yes"/>
      <point x="110" y="672"/>
      <point x="121.5" y="692.5"/>
      <point x="150" y="692.5" type="curve" smooth="yes"/>
      <point x="177.5" y="692.5"/>
      <point x="190" y="673"/>
      <point x="190" y="640" type="curve" smooth="yes"/>
    </contour>
  </outline>
</glyph>
<glyph name="nine" format="2">
  <advance width="300"/>
  <unicode hex="0039"/>
  <outline>
    <contour>
      <point x="140" y="240" type="curve" smooth="yes"/>
      <point x="160" y="240"/>
      <point x="176" y="245"/>
      <point x="190" y="254.5" type="curve"/>
      <point x="190" y="105" type="line" smooth="yes"/>
      <point x="190" y="73"/>
      <point x="178.5" y="52.5"/>
      <point x="150" y="52.5" type="curve" smooth="yes"/>
      <point x="122.5" y="52.5"/>
      <point x="110" y="72"/>
      <point x="110" y="105" type="curve" smooth="yes"/>
      <point x="110" y="190" type="line"/>
      <point x="40" y="190" type="line"/>
      <point x="40" y="115" type="line" smooth="yes"/>
      <point x="40" y="30.5"/>
      <point x="77" y="-10"/>
      <point x="150" y="-10" type="curve" smooth="yes"/>
      <point x="225" y="-10"/>
      <point x="260" y="33.5"/>
      <point x="260" y="115" type="curve" smooth="yes"/>
      <point x="260" y="630" type="line" smooth="yes"/>
      <point x="260" y="715.5"/>
      <point x="222" y="755"/>
      <point x="150" y="755" type="curve" smooth="yes"/>
      <point x="76" y="755"/>
      <point x="40" y="713"/>
      <point x="40" y="630" type="curve" smooth="yes"/>
      <point x="40" y="365" type="line" smooth="yes"/>
      <point x="40" y="273.5"/>
      <point x="86.5" y="240"/>
    </contour>
    <contour>
      <point x="110" y="640" type="line" smooth="yes"/>
      <point x="110" y="672.5"/>
      <point x="122" y="692.5"/>
      <point x="150" y="692.5" type="curve" smooth="yes"/>
      <point x="178" y="692.5"/>
      <point x="190" y="672.5"/>
      <point x="190" y="640" type="curve" smooth="yes"/>
      <point x="190" y="348.5" type="line"/>
      <point x="189" y="319"/>
      <point x="177.5" y="300"/>
      <point x="150" y="300" type="curve" smooth="yes"/>
      <point x="122.5" y="300"/>
      <point x="110" y="319.5"/>
      <point x="110" y="352.5" type="curve" smooth="yes"/>
    </contour>
  </outline>
</glyph>
<glyph name="question" format="2">
  <advance width="290"/>
  <unicode hex="003F"/>
  <outline>
    <contour>
      <point x="171.5" y="302" type="line"/>
      <point x="171.5" y="312.5"/>
      <point x="176" y="324.5"/>
      <point x="182.5" y="333" type="curve" smooth="yes"/>
      <point x="232.5" y="396.5" type="line"/>
      <point x="244.5" y="410.5"/>
      <point x="255" y="436.5"/>
      <point x="255" y="463" type="curve" smooth="yes"/>
      <point x="255" y="630" type="line" smooth="yes"/>
      <point x="255" y="703.5"/>
      <point x="226" y="755"/>
      <point x="145" y="755" type="curve" smooth="yes"/>
      <point x="64" y="755"/>
      <point x="35" y="703.5"/>
      <point x="35" y="630" type="curve" smooth="yes"/>
      <point x="35" y="486.5" type="line"/>
      <point x="105" y="486.5" type="line"/>
      <point x="105" y="640" type="line" smooth="yes"/>
      <point x="105" y="676"/>
      <point x="119.5" y="692.5"/>
      <point x="145" y="692.5" type="curve" smooth="yes"/>
      <point x="171" y="692.5"/>
      <point x="185" y="675.5"/>
      <point x="185" y="640" type="curve" smooth="yes"/>
      <point x="185" y="458" type="line" smooth="yes"/>
      <point x="185" y="448.5"/>
      <point x="181" y="439.5"/>
      <point x="176" y="434" type="curve"/>
      <point x="144.5" y="394" type="line" smooth="yes"/>
      <point x="127.5" y="372.5"/>
      <point x="117" y="340.5"/>
      <point x="118" y="313.5" type="curve" smooth="yes"/>
      <point x="122.5" y="172.5" type="line"/>
      <point x="167.5" y="172.5" type="line"/>
    </contour>
    <contour>
      <point x="110" y="0" type="line"/>
      <point x="180" y="0" type="line"/>
      <point x="180" y="97.5" type="line"/>
      <point x="110" y="97.5" type="line"/>
    </contour>
  </outline>
  <guideline angle="0" x="0" y="625"/>
  <guideline angle="0" x="0" y="635"/>
  <guideline angle="0" x="0" y="105"/>
  <guideline angle="0" x="0" y="115"/>
  <guideline angle="90" x="145" y="0"/>
</glyph>
<glyph name="A" format="2">
  <advance width="280"/>
  <unicode hex="0041"/>
  <outline>
    <contour>
      <point x="82" y="167" type="line"/>
      <point x="202" y="167" type="line"/>
      <point x="202" y="226.5" type="line"/>
      <point x="82" y="226.5" type="line"/>
    </contour>
    <contour>
      <point x="182.5" y="745" type="line"/>
      <point x="97.5" y="745" type="line"/>
      <point x="12.5" y="0" type="line"/>
      <point x="82" y="0" type="line"/>
      <point x="114.5" y="300" type="line"/>
      <point x="129.5" y="458.5"/>
      <point x="138" y="641.5"/>
      <point x="138" y="641.5" type="curve"/>
      <point x="140" y="641.5" type="line"/>
      <point x="140" y="641.5"/>
      <point x="148.5" y="459"/>
      <point x="163.5" y="300" type="curve"/>
      <point x="196" y="0" type="line"/>
      <point x="267.5" y="0" type="line"/>
    </contour>
  </outline>
</glyph>
<glyph name="B" format="2">
  <advance width="300"/>
  <unicode hex="0042"/>
  <outline>
    <contour>
      <point x="260" y="125" type="curve" smooth="yes"/>
      <point x="260" y="270.5" type="line" smooth="yes"/>
      <point x="260" y="355"/>
      <point x="223" y="395.5"/>
      <point x="150" y="395.5" type="curve" smooth="yes"/>
      <point x="40" y="395.5" type="line"/>
      <point x="40" y="0" type="line"/>
      <point x="150" y="0" type="line" smooth="yes"/>
      <point x="223" y="0"/>
      <point x="260" y="40.5"/>
    </contour>
    <contour>
      <point x="110" y="346" type="line"/>
      <point x="150" y="346" type="line" smooth="yes"/>
      <point x="177.5" y="346"/>
      <point x="190" y="327"/>
      <point x="190" y="293.5" type="curve" smooth="yes"/>
      <point x="190" y="112" type="line" smooth="yes"/>
      <point x="190" y="78.5"/>
      <point x="177.5" y="59.5"/>
      <point x="150" y="59.5" type="curve" smooth="yes"/>
      <point x="110" y="59.5" type="line"/>
    </contour>
    <contour>
      <point x="255" y="620" type="line" smooth="yes"/>
      <point x="255" y="704.5"/>
      <point x="218" y="745"/>
      <point x="145" y="745" type="curve" smooth="yes"/>
      <point x="40" y="745" type="line"/>
      <point x="40" y="353" type="line"/>
      <point x="145" y="353" type="line" smooth="yes"/>
      <point x="218" y="353"/>
      <point x="255" y="393.5"/>
      <point x="255" y="478" type="curve" smooth="yes"/>
    </contour>
    <contour>
      <point x="110" y="685.5" type="line"/>
      <point x="145" y="685.5" type="line" smooth="yes"/>
      <point x="172.5" y="685.5"/>
      <point x="185" y="666.5"/>
      <point x="185" y="633" type="curve" smooth="yes"/>
      <point x="185" y="457.5" type="line" smooth="yes"/>
      <point x="185" y="424"/>
      <point x="172.5" y="405"/>
      <point x="145" y="405" type="curve" smooth="yes"/>
      <point x="110" y="405" type="line"/>
    </contour>
  </outline>
</glyph>
<glyph name="D" format="2">
  <advance width="300"/>
  <unicode hex="0044"/>
  <outline>
    <contour>
      <point x="260" y="125" type="curve" smooth="yes"/>
      <point x="260" y="620" type="line" smooth="yes"/>
      <point x="260" y="704.5"/>
      <point x="223" y="745"/>
      <point x="150" y="745" type="curve" smooth="yes"/>
      <point x="40" y="745" type="line"/>
      <point x="40" y="0" type="line"/>
      <point x="150" y="0" type="line" smooth="yes"/>
      <point x="223" y="0"/>
      <point x="260" y="40.5"/>
    </contour>
    <contour>
      <point x="110" y="685.5" type="line"/>
      <point x="150" y="685.5" type="line" smooth="yes"/>
      <point x="177.5" y="685.5"/>
      <point x="190" y="666.5"/>
      <point x="190" y="633" type="curve" smooth="yes"/>
      <point x="190" y="112" type="line" smooth="yes"/>
      <point x="190" y="78.5"/>
      <point x="177.5" y="59.5"/>
      <point x="150" y="59.5" type="curve" smooth="yes"/>
      <point x="110" y="59.5" type="line"/>
    </contour>
  </outline>
  <guideline angle="0" x="0" y="125"/>
  <guideline angle="0" x="0" y="635"/>
  <guideline angle="90" x="25" y="0"/>
  <guideline angle="90" x="125" y="0"/>
  <guideline angle="90" x="175" y="0"/>
  <guideline angle="90" x="275" y="0"/>
</glyph>
<glyph name="E" format="2">
  <advance width="240"/>
  <unicode hex="0045"/>
  <outline>
    <contour>
      <point x="40" y="0" type="line"/>
      <point x="110" y="0" type="line"/>
      <point x="110" y="745" type="line"/>
      <point x="40" y="745" type="line"/>
    </contour>
    <contour>
      <point x="110" y="685.5" type="line"/>
      <point x="210" y="685.5" type="line"/>
      <point x="210" y="745" type="line"/>
      <point x="110" y="745" type="line"/>
    </contour>
    <contour>
      <point x="110" y="0" type="line"/>
      <point x="210" y="0" type="line"/>
      <point x="210" y="59.5" type="line"/>
      <point x="110" y="59.5" type="line"/>
    </contour>
    <contour>
      <point x="80" y="360" type="line"/>
      <point x="185" y="360" type="line"/>
      <point x="185" y="419.5" type="line"/>
      <point x="80" y="419.5" type="line"/>
    </contour>
  </outline>
  <guideline angle="0" x="0" y="387"/>
</glyph>
<glyph name="F" format="2">
  <advance width="220"/>
  <unicode hex="0046"/>
  <outline>
    <contour>
      <point x="40" y="0" type="line"/>
      <point x="110" y="0" type="line"/>
      <point x="110" y="745" type="line"/>
      <point x="40" y="745" type="line"/>
    </contour>
    <contour>
      <point x="110" y="685.5" type="line"/>
      <point x="200" y="685.5" type="line"/>
      <point x="200" y="745" type="line"/>
      <point x="110" y="745" type="line"/>
    </contour>
    <contour>
      <point x="80" y="355" type="line"/>
      <point x="185" y="355" type="line"/>
      <point x="185" y="414.5" type="line"/>
      <point x="80" y="414.5" type="line"/>
    </contour>
  </outline>
  <guideline angle="0" x="0" y="382"/>
</glyph>
<glyph name="H" format="2">
  <advance width="300"/>
  <unicode hex="0048"/>
  <outline>
    <contour>
      <point x="40" y="0" type="line"/>
      <point x="110" y="0" type="line"/>
      <point x="110" y="745" type="line"/>
      <point x="40" y="745" type="line"/>
    </contour>
    <contour>
      <point x="190" y="0" type="line"/>
      <point x="260" y="0" type="line"/>
      <point x="260" y="745" type="line"/>
      <point x="190" y="745" type="line"/>
    </contour>
    <contour>
      <point x="75" y="350" type="line"/>
      <point x="210" y="350" type="line"/>
      <point x="210" y="409.5" type="line"/>
      <point x="75" y="409.5" type="line"/>
    </contour>
  </outline>
</glyph>
<glyph name="I" format="2">
  <advance width="150"/>
  <unicode hex="0049"/>
  <outline>
    <contour>
      <point x="40" y="0" type="line"/>
      <point x="110" y="0" type="line"/>
      <point x="110" y="745" type="line"/>
      <point x="40" y="745" type="line"/>
    </contour>
  </outline>
</glyph>
<glyph name="J" format="2">
  <advance width="300"/>
  <unicode hex="004A"/>
  <outline>
    <contour>
      <point x="190" y="745" type="line"/>
      <point x="190" y="105" type="line" smooth="yes"/>
      <point x="190" y="73"/>
      <point x="178.5" y="52.5"/>
      <point x="150" y="52.5" type="curve" smooth="yes"/>
      <point x="122.5" y="52.5"/>
      <point x="110" y="72"/>
      <point x="110" y="105" type="curve" smooth="yes"/>
      <point x="110" y="340" type="line"/>
      <point x="40" y="340" type="line"/>
      <point x="40" y="115" type="line" smooth="yes"/>
      <point x="40" y="30.5"/>
      <point x="77" y="-10"/>
      <point x="150" y="-10" type="curve" smooth="yes"/>
      <point x="225" y="-10"/>
      <point x="260" y="33.5"/>
      <point x="260" y="115" type="curve" smooth="yes"/>
      <point x="260" y="745" type="line"/>
    </contour>
  </outline>
  <guideline angle="0" x="0" y="125"/>
  <guideline angle="90" x="25" y="0"/>
  <guideline angle="90" x="125" y="0"/>
  <guideline angle="90" x="175" y="0"/>
  <guideline angle="90" x="275" y="0"/>
</glyph>
<glyph name="K" format="2">
  <advance width="290"/>
  <unicode hex="004B"/>
  <outline>
    <contour>
      <point x="203.5" y="0" type="line"/>
      <point x="275" y="0" type="line"/>
      <point x="179" y="424.5" type="line"/>
      <point x="265" y="745" type="line"/>
      <point x="193" y="745" type="line"/>
      <point x="124" y="494.5" type="line" smooth="yes"/>
      <point x="113.5" y="454"/>
      <point x="107.5" y="399"/>
      <point x="107.5" y="399" type="curve"/>
      <point x="105.5" y="399" type="line"/>
      <point x="105.5" y="399"/>
      <point x="110" y="457"/>
      <point x="110" y="497.5" type="curve" smooth="yes"/>
      <point x="110" y="745" type="line"/>
      <point x="40" y="745" type="line"/>
      <point x="40" y="0" type="line"/>
      <point x="110" y="0" type="line"/>
      <point x="110" y="224" type="line"/>
      <point x="134.5" y="328" type="line"/>
    </contour>
  </outline>
</glyph>
<glyph name="L" format="2">
  <advance width="215"/>
  <unicode hex="004C"/>
  <outline>
    <contour>
      <point x="40" y="0" type="line"/>
      <point x="110" y="0" type="line"/>
      <point x="110" y="745" type="line"/>
      <point x="40" y="745" type="line"/>
    </contour>
    <contour>
      <point x="110" y="0" type="line"/>
      <point x="190" y="0" type="line"/>
      <point x="190" y="59.5" type="line"/>
      <point x="110" y="59.5" type="line"/>
    </contour>
  </outline>
</glyph>
<glyph name="M" format="2">
  <advance width="370"/>
  <unicode hex="004D"/>
  <outline>
    <contour>
      <point x="184" y="292.5" type="line"/>
      <point x="184" y="292.5"/>
      <point x="183" y="315.5"/>
      <point x="179" y="334.5" type="curve"/>
      <point x="110" y="745" type="line"/>
      <point x="45" y="745" type="line"/>
      <point x="45" y="0" type="line"/>
      <point x="115" y="0" type="line"/>
      <point x="115" y="0"/>
      <point x="115" y="228.5"/>
      <point x="115" y="269.5" type="curve" smooth="yes"/>
      <point x="115" y="338.5"/>
      <point x="109" y="421.5"/>
      <point x="104" y="473.5" type="curve"/>
      <point x="107" y="474.5" type="line"/>
      <point x="113.5" y="422.5"/>
      <point x="132.5" y="309.5"/>
      <point x="141" y="258.5" type="curve" smooth="yes"/>
      <point x="157.5" y="153.5" type="line"/>
      <point x="212.5" y="153.5" type="line"/>
      <point x="229" y="258.5" type="line" smooth="yes"/>
      <point x="237.5" y="309.5"/>
      <point x="256.5" y="422.5"/>
      <point x="263" y="474.5" type="curve"/>
      <point x="266" y="473.5" type="line"/>
      <point x="261" y="421.5"/>
      <point x="255" y="338.5"/>
      <point x="255" y="268.5" type="curve" smooth="yes"/>
      <point x="255" y="210.5"/>
      <point x="255" y="0"/>
      <point x="255" y="0" type="curve"/>
      <point x="325" y="0" type="line"/>
      <point x="325" y="745" type="line"/>
      <point x="260" y="745" type="line"/>
      <point x="191" y="334.5" type="line"/>
      <point x="187" y="314.5"/>
      <point x="186" y="292.5"/>
      <point x="186" y="292.5" type="curve"/>
    </contour>
  </outline>
  <guideline angle="90" x="95" y="0"/>
  <guideline angle="90" x="275" y="0"/>
  <guideline angle="90" x="185" y="0"/>
</glyph>
<glyph name="N" format="2">
  <advance width="310"/>
  <unicode hex="004E"/>
  <outline>
    <contour>
      <point x="104.5" y="496" type="line"/>
      <point x="205" y="0" type="line"/>
      <point x="270" y="0" type="line"/>
      <point x="270" y="745" type="line"/>
      <point x="200" y="745" type="line"/>
      <point x="200" y="444" type="line" smooth="yes"/>
      <point x="200" y="344"/>
      <point x="208.5" y="270"/>
      <point x="208.5" y="270" type="curve"/>
      <point x="206.5" y="269" type="line"/>
      <point x="105" y="745" type="line"/>
      <point x="40" y="745" type="line"/>
      <point x="40" y="0" type="line"/>
      <point x="110" y="0" type="line"/>
      <point x="110" y="322" type="line" smooth="yes"/>
      <point x="110" y="401"/>
      <point x="102.5" y="495"/>
      <point x="102.5" y="495" type="curve"/>
    </contour>
  </outline>
  <guideline angle="90" x="95" y="0"/>
  <guideline angle="90" x="215" y="0"/>
</glyph>
<glyph name="P" format="2">
  <advance width="300"/>
  <unicode hex="0050"/>
  <outline>
    <contour>
      <point x="260" y="378" type="curve" smooth="yes"/>
      <point x="260" y="620" type="line" smooth="yes"/>
      <point x="260" y="704.5"/>
      <point x="223" y="745"/>
      <point x="150" y="745" type="curve" smooth="yes"/>
      <point x="40" y="745" type="line"/>
      <point x="40" y="253" type="line"/>
      <point x="150" y="253" type="line" smooth="yes"/>
      <point x="223" y="253"/>
      <point x="260" y="293.5"/>
    </contour>
    <contour>
      <point x="110" y="685.5" type="line"/>
      <point x="150" y="685.5" type="line" smooth="yes"/>
      <point x="177.5" y="685.5"/>
      <point x="190" y="666.5"/>
      <point x="190" y="633" type="curve" smooth="yes"/>
      <point x="190" y="365" type="line" smooth="yes"/>
      <point x="190" y="331.5"/>
      <point x="177.5" y="312.5"/>
      <point x="150" y="312.5" type="curve" smooth="yes"/>
      <point x="110" y="312.5" type="line"/>
    </contour>
    <contour>
      <point x="40" y="0" type="line"/>
      <point x="110" y="0" type="line"/>
      <point x="110" y="253" type="line"/>
      <point x="40" y="253" type="line"/>
    </contour>
  </outline>
  <guideline angle="90" x="55" y="0"/>
  <guideline angle="90" x="95" y="0"/>
</glyph>
<glyph name="R" format="2">
  <advance width="300"/>
  <unicode hex="0052"/>
  <outline>
    <contour>
      <point x="213.5" y="0" type="line"/>
      <point x="282.5" y="0" type="line"/>
      <point x="253" y="150" type="line" smooth="yes"/>
      <point x="234" y="247"/>
      <point x="202.5" y="310"/>
      <point x="202.5" y="310" type="curve"/>
      <point x="153.5" y="310" type="line"/>
    </contour>
    <contour>
      <point x="260" y="398" type="curve" smooth="yes"/>
      <point x="260" y="620" type="line" smooth="yes"/>
      <point x="260" y="704.5"/>
      <point x="223" y="745"/>
      <point x="150" y="745" type="curve" smooth="yes"/>
      <point x="40" y="745" type="line"/>
      <point x="40" y="273" type="line"/>
      <point x="150" y="273" type="line" smooth="yes"/>
      <point x="223" y="273"/>
      <point x="260" y="313.5"/>
    </contour>
    <contour>
      <point x="110" y="685.5" type="line"/>
      <point x="150" y="685.5" type="line" smooth="yes"/>
      <point x="177.5" y="685.5"/>
      <point x="190" y="666.5"/>
      <point x="190" y="633" type="curve" smooth="yes"/>
      <point x="190" y="385" type="line" smooth="yes"/>
      <point x="190" y="351.5"/>
      <point x="177.5" y="332.5"/>
      <point x="150" y="332.5" type="curve" smooth="yes"/>
      <point x="110" y="332.5" type="line"/>
    </contour>
    <contour>
      <point x="40" y="0" type="line"/>
      <point x="110" y="0" type="line"/>
      <point x="110" y="273" type="line"/>
      <point x="40" y="273" type="line"/>
    </contour>
  </outline>
  <guideline angle="90" x="175" y="0"/>
  <guideline angle="90" x="275" y="0"/>
</glyph>
<glyph name="S" format="2">
  <advance width="290"/>
  <unicode hex="0053"/>
  <outline>
    <contour>
      <point x="255" y="486.5" type="line"/>
      <point x="255" y="630" type="line" smooth="yes"/>
      <point x="255" y="703.5"/>
      <point x="226" y="755"/>
      <point x="145" y="755" type="curve" smooth="yes"/>
      <point x="64" y="755"/>
      <point x="35" y="703.5"/>
      <point x="35" y="630" type="curve" smooth="yes"/>
      <point x="35" y="513" type="line" smooth="yes"/>
      <point x="35" y="486.5"/>
      <point x="45.5" y="460.5"/>
      <point x="57.5" y="446.5" type="curve"/>
      <point x="176" y="296" type="line" smooth="yes"/>
      <point x="180.5" y="290"/>
      <point x="185" y="282.5"/>
      <point x="185" y="271" type="curve" smooth="yes"/>
      <point x="185" y="105" type="line" smooth="yes"/>
      <point x="185" y="71"/>
      <point x="172" y="52.5"/>
      <point x="145" y="52.5" type="curve" smooth="yes"/>
      <point x="118" y="52.5"/>
      <point x="105" y="71.5"/>
      <point x="105" y="105" type="curve" smooth="yes"/>
      <point x="105" y="292.5" type="line"/>
      <point x="35" y="292.5" type="line"/>
      <point x="35" y="115" type="line" smooth="yes"/>
      <point x="35" y="36"/>
      <point x="68" y="-10"/>
      <point x="145" y="-10" type="curve" smooth="yes"/>
      <point x="223.5" y="-10"/>
      <point x="255" y="38"/>
      <point x="255" y="115" type="curve" smooth="yes"/>
      <point x="255" y="266" type="line" smooth="yes"/>
      <point x="255" y="294"/>
      <point x="247" y="315.5"/>
      <point x="232" y="333.5" type="curve"/>
      <point x="114" y="484" type="line"/>
      <point x="109" y="489.5"/>
      <point x="105" y="498.5"/>
      <point x="105" y="508" type="curve" smooth="yes"/>
      <point x="105" y="640" type="line" smooth="yes"/>
      <point x="105" y="675.5"/>
      <point x="119" y="692.5"/>
      <point x="145" y="692.5" type="curve" smooth="yes"/>
      <point x="170.5" y="692.5"/>
      <point x="185" y="676"/>
      <point x="185" y="640" type="curve" smooth="yes"/>
      <point x="185" y="486.5" type="line"/>
    </contour>
  </outline>
  <guideline angle="0" x="0" y="625"/>
  <guideline angle="0" x="0" y="635"/>
  <guideline angle="0" x="0" y="105"/>
  <guideline angle="0" x="0" y="115"/>
</glyph>
<glyph name="T" format="2">
  <advance width="240"/>
  <unicode hex="0054"/>
  <outline>
    <contour>
      <point x="85" y="0" type="line"/>
      <point x="155" y="0" type="line"/>
      <point x="155" y="745" type="line"/>
      <point x="85" y="745" type="line"/>
    </contour>
    <contour>
      <point x="155" y="685.5" type="line"/>
      <point x="227.5" y="685.5" type="line"/>
      <point x="227.5" y="745" type="line"/>
      <point x="155" y="745" type="line"/>
    </contour>
    <contour>
      <point x="12.5" y="685.5" type="line"/>
      <point x="85" y="685.5" type="line"/>
      <point x="85" y="745" type="line"/>
      <point x="12.5" y="745" type="line"/>
    </contour>
  </outline>
</glyph>
<glyph name="U" format="2">
  <advance width="300"/>
  <unicode hex="0055"/>
  <outline>
    <contour>
      <point x="190" y="745" type="line"/>
      <point x="190" y="105" type="line" smooth="yes"/>
      <point x="190" y="73"/>
      <point x="178.5" y="52.5"/>
      <point x="150" y="52.5" type="curve" smooth="yes"/>
      <point x="122.5" y="52.5"/>
      <point x="110" y="72"/>
      <point x="110" y="105" type="curve" smooth="yes"/>
      <point x="110" y="745" type="line"/>
      <point x="40" y="745" type="line"/>
      <point x="40" y="115" type="line" smooth="yes"/>
      <point x="40" y="30.5"/>
      <point x="77" y="-10"/>
      <point x="150" y="-10" type="curve" smooth="yes"/>
      <point x="225" y="-10"/>
      <point x="260" y="33.5"/>
      <point x="260" y="115" type="curve" smooth="yes"/>
      <point x="260" y="745" type="line"/>
    </contour>
  </outline>
</glyph>
<glyph name="V" format="2">
  <advance width="280"/>
  <unicode hex="0056"/>
  <outline>
    <contour>
      <point x="97.5" y="0" type="line"/>
      <point x="182.5" y="0" type="line"/>
      <point x="267.5" y="745" type="line"/>
      <point x="198" y="745" type="line"/>
      <point x="165.5" y="445" type="line"/>
      <point x="150.5" y="286.5"/>
      <point x="142" y="103.5"/>
      <point x="142" y="103.5" type="curve"/>
      <point x="140" y="103.5" type="line"/>
      <point x="140" y="103.5"/>
      <point x="131.5" y="286"/>
      <point x="116.5" y="445" type="curve"/>
      <point x="84" y="745" type="line"/>
      <point x="12.5" y="745" type="line"/>
    </contour>
  </outline>
  <guideline angle="0" x="0" y="175"/>
  <guideline angle="90" x="140" y="0"/>
</glyph>
<glyph name="W" format="2">
  <advance width="380"/>
  <unicode hex="0057"/>
  <outline>
    <contour>
      <point x="260" y="0" type="line"/>
      <point x="325" y="0" type="line"/>
      <point x="350" y="745" type="line"/>
      <point x="280" y="745" type="line"/>
      <point x="273.5" y="310" type="line" smooth="yes"/>
      <point x="273" y="279"/>
      <point x="275" y="206.5"/>
      <point x="275" y="206.5" type="curve"/>
      <point x="273" y="206" type="line"/>
      <point x="273" y="206"/>
      <point x="268" y="259"/>
      <point x="265" y="279.5" type="curve" smooth="yes"/>
      <point x="220" y="595" type="line"/>
      <point x="160" y="595" type="line"/>
      <point x="114.5" y="279.5" type="line" smooth="yes"/>
      <point x="111.5" y="259"/>
      <point x="106.5" y="206"/>
      <point x="106.5" y="206" type="curve"/>
      <point x="104.5" y="206.5" type="line"/>
      <point x="104.5" y="206.5"/>
      <point x="106.5" y="279"/>
      <point x="106" y="310" type="curve" smooth="yes"/>
      <point x="100" y="745" type="line"/>
      <point x="30" y="745" type="line"/>
      <point x="55" y="0" type="line"/>
      <point x="120" y="0" type="line"/>
      <point x="184.5" y="390.5" type="line" smooth="yes"/>
      <point x="188" y="411"/>
      <point x="189" y="458.5"/>
      <point x="189" y="458.5" type="curve"/>
      <point x="191" y="458.5" type="line"/>
      <point x="191" y="458.5"/>
      <point x="192" y="411"/>
      <point x="195.5" y="390.5" type="curve" smooth="yes"/>
    </contour>
  </outline>
  <guideline angle="0" x="0" y="280"/>
  <guideline angle="0" x="0" y="460"/>
  <guideline angle="0" x="0" y="217"/>
  <guideline angle="0" x="0" y="167"/>
</glyph>
<glyph name="X" format="2">
  <advance width="300"/>
  <unicode hex="0058"/>
  <outline>
    <contour>
      <point x="275" y="745" type="line"/>
      <point x="205" y="745" type="line"/>
      <point x="163.5" y="551" type="line" smooth="yes"/>
      <point x="155.5" y="512"/>
      <point x="151.5" y="454"/>
      <point x="151.5" y="454" type="curve"/>
      <point x="149.5" y="454" type="line"/>
      <point x="149.5" y="454"/>
      <point x="145.5" y="512"/>
      <point x="137.5" y="551" type="curve" smooth="yes"/>
      <point x="96" y="745" type="line"/>
      <point x="25" y="745" type="line"/>
      <point x="103.5" y="391.5" type="line"/>
      <point x="15" y="0" type="line"/>
      <point x="86" y="0" type="line"/>
      <point x="134" y="229" type="line" smooth="yes"/>
      <point x="141" y="264.5"/>
      <point x="149.5" y="330"/>
      <point x="149.5" y="330" type="curve"/>
      <point x="151.5" y="330" type="line"/>
      <point x="151.5" y="330"/>
      <point x="160" y="264.5"/>
      <point x="167" y="229" type="curve" smooth="yes"/>
      <point x="215" y="0" type="line"/>
      <point x="285" y="0" type="line"/>
      <point x="196" y="391.5" type="line"/>
    </contour>
  </outline>
  <guideline angle="0" x="0" y="591"/>
  <guideline angle="0" x="0" y="213"/>
  <guideline angle="0" x="0" y="468"/>
  <guideline angle="0" x="0" y="320"/>
  <guideline angle="0" x="0" y="740"/>
  <guideline angle="90" x="30" y="0"/>
  <guideline angle="90" x="270" y="0"/>
</glyph>
<glyph name="Y" format="2">
  <advance width="270"/>
  <unicode hex="0059"/>
  <outline>
    <contour>
      <point x="100" y="0" type="line"/>
      <point x="170" y="0" type="line"/>
      <point x="170" y="197.5" type="line"/>
      <point x="255" y="745" type="line"/>
      <point x="185" y="745" type="line"/>
      <point x="146" y="439.5" type="line" smooth="yes"/>
      <point x="140.5" y="397.5"/>
      <point x="136.5" y="323"/>
      <point x="136.5" y="323" type="curve"/>
      <point x="134.5" y="323" type="line"/>
      <point x="134.5" y="323"/>
      <point x="130.5" y="397.5"/>
      <point x="125" y="439.5" type="curve" smooth="yes"/>
      <point x="86" y="745" type="line"/>
      <point x="15" y="745" type="line"/>
      <point x="100" y="197.5" type="line"/>
    </contour>
  </outline>
  <guideline angle="0" x="0" y="517"/>
  <guideline angle="0" x="0" y="490"/>
  <guideline angle="0" x="0" y="325"/>
  <guideline angle="90" x="135" y="0"/>
</glyph>
<glyph name="Z" format="2">
  <advance width="230"/>
  <unicode hex="005A"/>
  <outline>
    <contour>
      <point x="22.5" y="685.5" type="line"/>
      <point x="135" y="685.5" type="line"/>
      <point x="207.5" y="695.5" type="line"/>
      <point x="207.5" y="745" type="line"/>
      <point x="22.5" y="745" type="line"/>
    </contour>
    <contour>
      <point x="17.5" y="0" type="line"/>
      <point x="212.5" y="0" type="line"/>
      <point x="212.5" y="59.5" type="line"/>
      <point x="90" y="59.5" type="line"/>
      <point x="17.5" y="49.5" type="line"/>
    </contour>
    <contour>
      <point x="17.5" y="49.5" type="line"/>
      <point x="90" y="59.5" type="line"/>
      <point x="207.5" y="695.5" type="line"/>
      <point x="135" y="685.5" type="line"/>
    </contour>
  </outline>
  <guideline angle="90" x="190" y="0"/>
  <guideline angle="90" x="40" y="0"/>
</glyph>
<glyph name="bracketleft" format="2">
  <advance width="194"/>
  <unicode hex="005B"/>
  <outline>
    <contour>
      <point x="179" y="760" type="line"/>
      <point x="40" y="760" type="line"/>
      <point x="40" y="-20" type="line"/>
      <point x="179" y="-20" type="line"/>
      <point x="179" y="25" type="line"/>
      <point x="110" y="25" type="line"/>
      <point x="110" y="715" type="line"/>
      <point x="179" y="715" type="line"/>
    </contour>
  </outline>
</glyph>
<glyph name="grave" format="2">
  <advance width="300"/>
  <unicode hex="0060"/>
  <outline>
    <contour>
      <point x="235" y="687.5" type="line"/>
      <point x="65" y="687.5" type="line"/>
      <point x="65" y="750" type="line"/>
      <point x="235" y="720" type="line"/>
    </contour>
  </outline>
  <guideline angle="90" x="35" y="0"/>
  <guideline angle="90" x="235" y="0"/>
</glyph>
<glyph name="braceleft" format="2">
  <advance width="182"/>
  <unicode hex="007B"/>
  <outline>
    <contour>
      <point x="167" y="760" type="line"/>
      <point x="133" y="760" type="line" smooth="yes"/>
      <point x="88" y="760"/>
      <point x="58" y="730"/>
      <point x="58" y="685" type="curve" smooth="yes"/>
      <point x="58" y="436.5" type="line" smooth="yes"/>
      <point x="58" y="410"/>
      <point x="42" y="392"/>
      <point x="18" y="392" type="curve" smooth="yes"/>
      <point x="0" y="392" type="line"/>
      <point x="0" y="348" type="line"/>
      <point x="18" y="348" type="line" smooth="yes"/>
      <point x="42" y="348"/>
      <point x="58" y="330"/>
      <point x="58" y="303.5" type="curve" smooth="yes"/>
      <point x="58" y="55" type="line" smooth="yes"/>
      <point x="58" y="10"/>
      <point x="88" y="-20"/>
      <point x="133" y="-20" type="curve" smooth="yes"/>
      <point x="167" y="-20" type="line"/>
      <point x="167" y="25" type="line"/>
      <point x="148" y="25" type="line" smooth="yes"/>
      <point x="136" y="25"/>
      <point x="128" y="33"/>
      <point x="128" y="45" type="curve" smooth="yes"/>
      <point x="128" y="288" type="line" smooth="yes"/>
      <point x="128" y="325.5"/>
      <point x="106" y="355"/>
      <point x="71" y="365" type="curve"/>
      <point x="71" y="375" type="line"/>
      <point x="107" y="386"/>
      <point x="128" y="414.5"/>
      <point x="128" y="452" type="curve" smooth="yes"/>
      <point x="128" y="695" type="line" smooth="yes"/>
      <point x="128" y="707"/>
      <point x="136" y="715"/>
      <point x="148" y="715" type="curve" smooth="yes"/>
      <point x="167" y="715" type="line"/>
    </contour>
  </outline>
  <guideline angle="0" x="0" y="370"/>
</glyph>
<glyph name="exclamdown" format="2">
  <advance width="150"/>
  <unicode hex="00A1"/>
  <outline>
    <contour>
      <point x="110" y="745" type="line"/>
      <point x="40" y="745" type="line"/>
      <point x="40" y="647.5" type="line"/>
      <point x="110" y="647.5" type="line"/>
    </contour>
    <contour>
      <point x="110" y="172.5" type="line"/>
      <point x="97.5" y="572.5" type="line"/>
      <point x="52.5" y="572.5" type="line"/>
      <point x="40" y="172.5" type="line"/>
      <point x="40" y="0" type="line"/>
      <point x="110" y="0" type="line"/>
    </contour>
  </outline>
</glyph>
<glyph name="cent" format="2">
  <advance width="300"/>
  <unicode hex="00A2"/>
  <outline>
    <component base="C.alt" yOffset="72.5"/>
    <contour>
      <point x="115" y="0" type="line"/>
      <point x="185" y="0" type="line"/>
      <point x="185" y="72.5" type="line"/>
      <point x="115" y="72.5" type="line"/>
    </contour>
    <contour>
      <point x="115" y="667.5" type="line"/>
      <point x="185" y="667.5" type="line"/>
      <point x="185" y="745" type="line"/>
      <point x="115" y="745" type="line"/>
    </contour>
  </outline>
</glyph>
<glyph name="brokenbar" format="2">
  <advance width="150"/>
  <unicode hex="00A6"/>
  <outline>
    <contour>
      <point x="60" y="370" type="line"/>
      <point x="90" y="370" type="line"/>
      <point x="90" y="375" type="line"/>
      <point x="60" y="375" type="line"/>
    </contour>
    <contour>
      <point x="90" y="370" type="line"/>
      <point x="60" y="370" type="line"/>
      <point x="60" y="370" type="line"/>
      <point x="90" y="370" type="line"/>
    </contour>
  </outline>
  <guideline angle="0" x="0" y="-50"/>
</glyph>
<glyph name="dieresis" format="2">
  <advance width="300"/>
  <unicode hex="00A8"/>
  <outline>
    <contour>
      <point x="50" y="672.5" type="line"/>
      <point x="120" y="672.5" type="line"/>
      <point x="120" y="745" type="line"/>
      <point x="50" y="745" type="line"/>
    </contour>
    <contour>
      <point x="250" y="745" type="line"/>
      <point x="180" y="745" type="line"/>
      <point x="180" y="672.5" type="line"/>
      <point x="250" y="672.5" type="line"/>
    </contour>
  </outline>
</glyph>
<glyph name="degree" format="2">
  <advance width="300"/>
  <unicode hex="00B0"/>
  <outline>
    <contour>
      <point x="30" y="635" type="curve" smooth="yes"/>
      <point x="30" y="563"/>
      <point x="78" y="515"/>
      <point x="150" y="515" type="curve" smooth="yes"/>
      <point x="222" y="515"/>
      <point x="270" y="563"/>
      <point x="270" y="635" type="curve" smooth="yes"/>
      <point x="270" y="707"/>
      <point x="222" y="755"/>
      <point x="150" y="755" type="curve" smooth="yes"/>
      <point x="78" y="755"/>
      <point x="30" y="707"/>
    </contour>
    <contour>
      <point x="92.5" y="635.5" type="curve" smooth="yes"/>
      <point x="92.5" y="672.5"/>
      <point x="115.5" y="697.5"/>
      <point x="150" y="697.5" type="curve" smooth="yes"/>
      <point x="184.5" y="697.5"/>
      <point x="207.5" y="672.5"/>
      <point x="207.5" y="635.5" type="curve" smooth="yes"/>
      <point x="207.5" y="597.5"/>
      <point x="184.5" y="572.5"/>
      <point x="150" y="572.5" type="curve" smooth="yes"/>
      <point x="115.5" y="572.5"/>
      <point x="92.5" y="597.5"/>
    </contour>
  </outline>
  <guideline angle="0" x="0" y="125"/>
  <guideline angle="90" x="55" y="0"/>
  <guideline angle="90" x="95" y="0"/>
  <guideline angle="90" x="205" y="0"/>
  <guideline angle="90" x="245" y="0"/>
  <guideline angle="0" x="0" y="645"/>
</glyph>
<glyph name="cedilla" format="2">
  <advance width="300"/>
  <unicode hex="00B8"/>
  <outline>
    <contour>
      <point x="127.5" y="77.5" type="line"/>
      <point x="172.5" y="77.5" type="line"/>
      <point x="172.5" y="150" type="line"/>
      <point x="127.5" y="150" type="line"/>
    </contour>
    <contour>
      <point x="145" y="117.5" type="curve"/>
      <point x="145" y="77.5" type="line"/>
      <point x="167" y="77.5"/>
      <point x="181" y="67.5"/>
      <point x="181" y="53.5" type="curve" smooth="yes"/>
      <point x="181" y="39.5"/>
      <point x="167" y="30"/>
      <point x="146.754" y="30" type="curve" smooth="yes"/>
      <point x="118.5" y="30"/>
      <point x="101.5" y="48.5"/>
      <point x="101.5" y="48.5" type="curve"/>
      <point x="80.5" y="16.5" type="line"/>
      <point x="80.5" y="16.5"/>
      <point x="104" y="-10"/>
      <point x="151.157" y="-10" type="curve" smooth="yes"/>
      <point x="196.5" y="-10"/>
      <point x="226" y="14.5"/>
      <point x="226" y="51.7273" type="curve" smooth="yes"/>
      <point x="226" y="90.5"/>
      <point x="194" y="117.5"/>
    </contour>
  </outline>
  <guideline angle="0" x="0" y="100"/>
  <guideline angle="90" x="24" y="0"/>
  <guideline angle="90" x="124" y="0"/>
  <guideline angle="90" x="174" y="0"/>
  <guideline angle="90" x="274" y="0"/>
</glyph>
<glyph name="questiondown" format="2">
  <advance width="290"/>
  <unicode hex="00BF"/>
  <outline>
    <contour>
      <point x="118.5" y="443" type="line"/>
      <point x="118.5" y="432.5"/>
      <point x="114" y="420.5"/>
      <point x="107.5" y="412" type="curve" smooth="yes"/>
      <point x="57.5" y="348.5" type="line"/>
      <point x="45.5" y="334.5"/>
      <point x="35" y="308.5"/>
      <point x="35" y="282" type="curve" smooth="yes"/>
      <point x="35" y="115" type="line" smooth="yes"/>
      <point x="35" y="41.5"/>
      <point x="64" y="-10"/>
      <point x="145" y="-10" type="curve" smooth="yes"/>
      <point x="226" y="-10"/>
      <point x="255" y="41.5"/>
      <point x="255" y="115" type="curve" smooth="yes"/>
      <point x="255" y="258.5" type="line"/>
      <point x="185" y="258.5" type="line"/>
      <point x="185" y="105" type="line" smooth="yes"/>
      <point x="185" y="69"/>
      <point x="170.5" y="52.5"/>
      <point x="145" y="52.5" type="curve" smooth="yes"/>
      <point x="119" y="52.5"/>
      <point x="105" y="69.5"/>
      <point x="105" y="105" type="curve" smooth="yes"/>
      <point x="105" y="287" type="line" smooth="yes"/>
      <point x="105" y="296.5"/>
      <point x="109" y="305.5"/>
      <point x="114" y="311" type="curve"/>
      <point x="145.5" y="351" type="line" smooth="yes"/>
      <point x="162.5" y="372.5"/>
      <point x="172.5" y="404.5"/>
      <point x="172" y="431.5" type="curve" smooth="yes"/>
      <point x="167.5" y="572.5" type="line"/>
      <point x="122.5" y="572.5" type="line"/>
    </contour>
    <contour>
      <point x="180" y="745" type="line"/>
      <point x="110" y="745" type="line"/>
      <point x="110" y="647.5" type="line"/>
      <point x="180" y="647.5" type="line"/>
    </contour>
  </outline>
  <guideline angle="0" x="0" y="625"/>
  <guideline angle="0" x="0" y="635"/>
  <guideline angle="0" x="0" y="105"/>
  <guideline angle="0" x="0" y="115"/>
  <guideline angle="90" x="145" y="0"/>
</glyph>
<glyph name="Igrave" format="2">
  <advance width="150"/>
  <unicode hex="00CC"/>
  <outline>
    <component base="I.alt"/>
    <contour>
      <point x="135" y="687.5" type="line"/>
      <point x="15" y="687.5" type="line"/>
      <point x="15" y="750" type="line"/>
      <point x="135" y="720" type="line"/>
    </contour>
  </outline>
  <guideline angle="90" x="105" y="0"/>
  <guideline angle="90" x="175" y="0"/>
  <guideline angle="90" x="135" y="0"/>
  <guideline angle="90" x="205" y="0"/>
  <guideline angle="90" x="-40" y="0"/>
  <guideline angle="90" x="160" y="0"/>
</glyph>
<glyph name="Iacute" format="2">
  <advance width="150"/>
  <unicode hex="00CD"/>
  <outline>
    <component base="I.alt"/>
    <contour>
      <point x="15" y="687.5" type="line"/>
      <point x="15" y="720" type="line"/>
      <point x="135" y="750" type="line"/>
      <point x="135" y="687.5" type="line"/>
    </contour>
  </outline>
  <guideline angle="90" x="25" y="0"/>
  <guideline angle="90" x="95" y="0"/>
  <guideline angle="90" x="55" y="0"/>
  <guideline angle="90" x="125" y="0"/>
  <guideline angle="90" x="-40" y="0"/>
  <guideline angle="90" x="160" y="0"/>
</glyph>
<glyph name="Icircumflex" format="2">
  <advance width="150"/>
  <unicode hex="00CE"/>
  <outline>
    <component base="I.alt"/>
    <contour>
      <point x="15" y="682.5" type="line"/>
      <point x="75" y="700" type="line"/>
      <point x="135" y="682.5" type="line"/>
      <point x="135" y="720" type="line"/>
      <point x="75" y="750" type="line"/>
      <point x="15" y="720" type="line"/>
    </contour>
  </outline>
  <guideline angle="90" x="-25" y="0"/>
  <guideline angle="90" x="175" y="0"/>
  <guideline angle="90" x="75" y="0"/>
  <guideline angle="90" x="3" y="0"/>
  <guideline angle="90" x="175" y="0"/>
  <guideline angle="90" x="75" y="0"/>
</glyph>
<glyph name="Idieresis" format="2">
  <advance width="150"/>
  <unicode hex="00CF"/>
  <outline>
    <component base="I.alt"/>
    <contour>
      <point x="0" y="672.5" type="line"/>
      <point x="57.5" y="672.5" type="line"/>
      <point x="57.5" y="745" type="line"/>
      <point x="0" y="745" type="line"/>
    </contour>
    <contour>
      <point x="150" y="745" type="line"/>
      <point x="92.5" y="745" type="line"/>
      <point x="92.5" y="672.5" type="line"/>
      <point x="150" y="672.5" type="line"/>
    </contour>
  </outline>
</glyph>
<glyph name="Oslash" format="2">
  <advance width="300"/>
  <unicode hex="00D8"/>
  <outline>
    <component base="O"/>
    <contour>
      <point x="133" y="376" type="line"/>
      <point x="163" y="376" type="line"/>
      <point x="167" y="374" type="line"/>
      <point x="137" y="374" type="line"/>
    </contour>
  </outline>
  <guideline angle="0" x="0" y="125"/>
  <guideline angle="90" x="55" y="0"/>
  <guideline angle="90" x="125" y="0"/>
  <guideline angle="90" x="175" y="0"/>
  <guideline angle="90" x="245" y="0"/>
</glyph>
<glyph name="Thorn" format="2">
  <advance width="300"/>
  <unicode hex="00DE"/>
  <outline>
    <contour>
      <point x="260" y="250.5" type="curve" smooth="yes"/>
      <point x="260" y="492.5" type="line" smooth="yes"/>
      <point x="260" y="577"/>
      <point x="223" y="617.5"/>
      <point x="150" y="617.5" type="curve" smooth="yes"/>
      <point x="40" y="617.5" type="line"/>
      <point x="40" y="125.5" type="line"/>
      <point x="150" y="125.5" type="line" smooth="yes"/>
      <point x="223" y="125.5"/>
      <point x="260" y="166"/>
    </contour>
    <contour>
      <point x="110" y="558" type="line"/>
      <point x="150" y="558" type="line" smooth="yes"/>
      <point x="177.5" y="558"/>
      <point x="190" y="539"/>
      <point x="190" y="505.5" type="curve" smooth="yes"/>
      <point x="190" y="237.5" type="line" smooth="yes"/>
      <point x="190" y="204"/>
      <point x="177.5" y="185"/>
      <point x="150" y="185" type="curve" smooth="yes"/>
      <point x="110" y="185" type="line"/>
    </contour>
    <contour>
      <point x="40" y="0" type="line"/>
      <point x="110" y="0" type="line"/>
      <point x="110" y="125.5" type="line"/>
      <point x="40" y="125.5" type="line"/>
    </contour>
    <contour>
      <point x="40" y="617.5" type="line"/>
      <point x="110" y="617.5" type="line"/>
      <point x="110" y="745" type="line"/>
      <point x="40" y="745" type="line"/>
    </contour>
  </outline>
  <guideline angle="90" x="55" y="0"/>
  <guideline angle="90" x="95" y="0"/>
</glyph>
<glyph name="Hbar" format="2">
  <advance width="300"/>
  <unicode hex="0126"/>
  <outline>
    <component base="H.alt"/>
    <contour>
      <point x="15" y="477.5" type="line"/>
      <point x="15" y="515" type="line"/>
      <point x="285" y="515" type="line"/>
      <point x="285" y="477.5" type="line"/>
    </contour>
  </outline>
  <guideline angle="90" x="35" y="0"/>
  <guideline angle="90" x="235" y="0"/>
  <guideline angle="90" x="35" y="0"/>
  <guideline angle="90" x="235" y="0"/>
</glyph>
<glyph name="OE" format="2">
  <advance width="390"/>
  <unicode hex="0152"/>
  <outline>
    <contour>
      <point x="132.5" y="-10" type="curve" smooth="yes"/>
      <point x="195.5" y="-10"/>
      <point x="225" y="33.5"/>
      <point x="225" y="115" type="curve" smooth="yes"/>
      <point x="225" y="630" type="line" smooth="yes"/>
      <point x="225" y="715.5"/>
      <point x="192.5" y="755"/>
      <point x="132.5" y="755" type="curve" smooth="yes"/>
      <point x="70.5" y="755"/>
      <point x="40" y="713"/>
      <point x="40" y="630" type="curve" smooth="yes"/>
      <point x="40" y="115" type="line" smooth="yes"/>
      <point x="40" y="30.5"/>
      <point x="71.5" y="-10"/>
    </contour>
    <contour>
      <point x="110" y="640" type="line" smooth="yes"/>
      <point x="110" y="672.5"/>
      <point x="122" y="692.5"/>
      <point x="150" y="692.5" type="curve" smooth="yes"/>
      <point x="178" y="692.5"/>
      <point x="190" y="672.5"/>
      <point x="190" y="640" type="curve" smooth="yes"/>
      <point x="190" y="105" type="line" smooth="yes"/>
      <point x="190" y="73"/>
      <point x="178.5" y="52.5"/>
      <point x="150" y="52.5" type="curve" smooth="yes"/>
      <point x="122.5" y="52.5"/>
      <point x="110" y="72"/>
      <point x="110" y="105" type="curve" smooth="yes"/>
    </contour>
    <contour>
      <point x="190" y="0" type="line"/>
      <point x="260" y="0" type="line"/>
      <point x="260" y="745" type="line"/>
      <point x="190" y="745" type="line"/>
    </contour>
    <contour>
      <point x="260" y="685.5" type="line"/>
      <point x="360" y="685.5" type="line"/>
      <point x="360" y="745" type="line"/>
      <point x="260" y="745" type="line"/>
    </contour>
    <contour>
      <point x="260" y="0" type="line"/>
      <point x="360" y="0" type="line"/>
      <point x="360" y="59.5" type="line"/>
      <point x="260" y="59.5" type="line"/>
    </contour>
    <contour>
      <point x="230" y="360" type="line"/>
      <point x="335" y="360" type="line"/>
      <point x="335" y="419.5" type="line"/>
      <point x="230" y="419.5" type="line"/>
    </contour>
  </outline>
  <guideline angle="0" x="0" y="125"/>
  <guideline angle="90" x="25" y="0"/>
  <guideline angle="90" x="125" y="0"/>
  <guideline angle="90" x="175" y="0"/>
  <guideline angle="90" x="275" y="0"/>
  <guideline angle="0" x="0" y="387"/>
  <guideline angle="0" x="0" y="125"/>
  <guideline angle="90" x="25" y="0"/>
  <guideline angle="90" x="125" y="0"/>
  <guideline angle="90" x="175" y="0"/>
  <guideline angle="90" x="275" y="0"/>
  <guideline angle="0" x="0" y="387"/>
</glyph>
<glyph name="circumflex" format="2">
  <advance width="300"/>
  <unicode hex="02C6"/>
  <outline>
    <contour>
      <point x="99.5" y="730" type="line"/>
      <point x="128.5" y="720" type="line"/>
      <point x="200" y="713.5" type="line"/>
      <point x="222.5" y="672.5" type="line"/>
      <point x="188" y="695" type="line"/>
      <point x="119" y="697.5" type="line"/>
      <point x="92.5" y="727.5" type="line"/>
    </contour>
  </outline>
  <guideline angle="90" x="50" y="0"/>
  <guideline angle="90" x="250" y="0"/>
  <guideline angle="90" x="150" y="0"/>
</glyph>
<glyph name="caron" format="2">
  <advance width="300"/>
  <unicode hex="02C7"/>
  <outline>
    <contour>
      <point x="62" y="710" type="line"/>
      <point x="130" y="677.5" type="line"/>
      <point x="170" y="677.5" type="line"/>
      <point x="238" y="710" type="line"/>
      <point x="222.5" y="750" type="line"/>
      <point x="150" y="726.5" type="line"/>
      <point x="77.5" y="750" type="line"/>
    </contour>
  </outline>
  <guideline angle="90" x="140" y="0"/>
</glyph>
<glyph name="breve" format="2">
  <advance width="300"/>
  <unicode hex="02D8"/>
  <outline>
    <contour>
      <point x="62" y="750" type="line"/>
      <point x="62" y="706.5"/>
      <point x="97" y="677.5"/>
      <point x="150" y="677.5" type="curve" smooth="yes"/>
      <point x="203" y="677.5"/>
      <point x="238" y="706.5"/>
      <point x="238" y="750" type="curve"/>
      <point x="190.5" y="750" type="line"/>
      <point x="190.5" y="732"/>
      <point x="174.5" y="720"/>
      <point x="150" y="720" type="curve" smooth="yes"/>
      <point x="125.5" y="720"/>
      <point x="109.5" y="732"/>
      <point x="109.5" y="750" type="curve"/>
    </contour>
  </outline>
  <guideline angle="90" x="140" y="0"/>
</glyph>
<glyph name="dotaccent" format="2">
  <advance width="300"/>
  <unicode hex="02D9"/>
  <outline>
    <contour>
      <point x="110" y="715" type="curve" smooth="yes"/>
      <point x="110" y="691"/>
      <point x="126" y="675"/>
      <point x="150" y="675" type="curve" smooth="yes"/>
      <point x="174" y="675"/>
      <point x="190" y="691"/>
      <point x="190" y="715" type="curve" smooth="yes"/>
      <point x="190" y="739"/>
      <point x="174" y="755"/>
      <point x="150" y="755" type="curve" smooth="yes"/>
      <point x="126" y="755"/>
      <point x="110" y="739"/>
    </contour>
  </outline>
  <guideline angle="90" x="25" y="0"/>
  <guideline angle="90" x="225" y="0"/>
  <guideline angle="90" x="125" y="0"/>
</glyph>
<glyph name="ring" format="2">
  <advance width="300"/>
  <unicode hex="02DA"/>
  <outline>
    <contour>
      <point x="87.5" y="702.5" type="curve" smooth="yes"/>
      <point x="87.5" y="665"/>
      <point x="112.5" y="640"/>
      <point x="150" y="640" type="curve" smooth="yes"/>
      <point x="187.5" y="640"/>
      <point x="212.5" y="665"/>
      <point x="212.5" y="702.5" type="curve" smooth="yes"/>
      <point x="212.5" y="740"/>
      <point x="187.5" y="765"/>
      <point x="150" y="765" type="curve" smooth="yes"/>
      <point x="112.5" y="765"/>
      <point x="87.5" y="740"/>
    </contour>
    <contour>
      <point x="118.5" y="702.5" type="curve" smooth="yes"/>
      <point x="118.5" y="722"/>
      <point x="131.5" y="735"/>
      <point x="150.5" y="735" type="curve" smooth="yes"/>
      <point x="169" y="735"/>
      <point x="181.5" y="722"/>
      <point x="181.5" y="702.5" type="curve" smooth="yes"/>
      <point x="181.5" y="683"/>
      <point x="169" y="670"/>
      <point x="150.5" y="670" type="curve" smooth="yes"/>
      <point x="131.5" y="670"/>
      <point x="118.5" y="683"/>
    </contour>
  </outline>
  <guideline angle="90" x="20" y="0"/>
  <guideline angle="90" x="220" y="0"/>
  <guideline angle="90" x="120" y="0"/>
</glyph>
<glyph name="ogonek" format="2">
  <advance width="300"/>
  <unicode hex="02DB"/>
  <outline>
    <contour>
      <point x="108" y="67.8816" type="curve" smooth="yes"/>
      <point x="108" y="21"/>
      <point x="141.5" y="-10"/>
      <point x="192" y="-10" type="curve"/>
      <point x="192" y="42.5" type="line"/>
      <point x="170" y="42.5"/>
      <point x="155.5" y="59.5"/>
      <point x="155.5" y="85.6894" type="curve" smooth="yes"/>
      <point x="155.5" y="108.5"/>
      <point x="166.5" y="134.5"/>
      <point x="183" y="150" type="curve"/>
      <point x="160.5" y="173" type="line"/>
      <point x="129" y="147"/>
      <point x="108" y="105"/>
    </contour>
  </outline>
</glyph>
<glyph name="tilde" format="2">
  <advance width="300"/>
  <unicode hex="02DC"/>
  <outline>
    <contour>
      <point x="60" y="682.5" type="line"/>
      <point x="60" y="682.5"/>
      <point x="85" y="697.5"/>
      <point x="110" y="697.5" type="curve" smooth="yes"/>
      <point x="135" y="697.5"/>
      <point x="160" y="682.5"/>
      <point x="190" y="682.5" type="curve" smooth="yes"/>
      <point x="215" y="682.5"/>
      <point x="240" y="697.5"/>
      <point x="240" y="697.5" type="curve"/>
      <point x="240" y="745" type="line"/>
      <point x="240" y="745"/>
      <point x="215" y="730"/>
      <point x="190" y="730" type="curve" smooth="yes"/>
      <point x="160" y="730"/>
      <point x="135" y="745"/>
      <point x="110" y="745" type="curve" smooth="yes"/>
      <point x="85" y="745"/>
      <point x="60" y="730"/>
      <point x="60" y="730" type="curve"/>
    </contour>
  </outline>
  <guideline angle="90" x="35" y="0"/>
  <guideline angle="90" x="235" y="0"/>
  <guideline angle="90" x="150" y="0"/>
</glyph>
<glyph name="hungarumlaut" format="2">
  <advance width="300"/>
  <unicode hex="02DD"/>
  <outline>
    <contour>
      <point x="45" y="687.5" type="line"/>
      <point x="45" y="720" type="line"/>
      <point x="140" y="750" type="line"/>
      <point x="140" y="687.5" type="line"/>
    </contour>
    <contour>
      <point x="160" y="687.5" type="line"/>
      <point x="160" y="720" type="line"/>
      <point x="255" y="750" type="line"/>
      <point x="255" y="687.5" type="line"/>
    </contour>
  </outline>
  <guideline angle="90" x="35" y="0"/>
  <guideline angle="90" x="235" y="0"/>
</glyph>
<glyph name="commaaccent" format="2">
  <advance width="300"/>
  <unicode hex="0326"/>
  <outline>
    <contour>
      <point x="120" y="0" type="line"/>
      <point x="172.5" y="0" type="line"/>
      <point x="180" y="92.5" type="line"/>
      <point x="120" y="92.5" type="line"/>
    </contour>
  </outline>
</glyph>
<glyph name="Delta" format="2">
  <advance width="280"/>
  <unicode hex="0394"/>
  <outline>
    <contour>
      <point x="61" y="0" type="line"/>
      <point x="212" y="0" type="line"/>
      <point x="212" y="59.5" type="line"/>
      <point x="61" y="59.5" type="line"/>
    </contour>
    <contour>
      <point x="182.5" y="745" type="line"/>
      <point x="97.5" y="745" type="line"/>
      <point x="12.5" y="0" type="line"/>
      <point x="82" y="0" type="line"/>
      <point x="114.5" y="300" type="line"/>
      <point x="129.5" y="458.5"/>
      <point x="138" y="641.5"/>
      <point x="138" y="641.5" type="curve"/>
      <point x="140" y="641.5" type="line"/>
      <point x="140" y="641.5"/>
      <point x="148.5" y="459"/>
      <point x="163.5" y="300" type="curve"/>
      <point x="196" y="0" type="line"/>
      <point x="267.5" y="0" type="line"/>
    </contour>
  </outline>
</glyph>
<glyph name="emdash" format="2">
  <advance width="470"/>
  <unicode hex="2014"/>
  <outline>
    <contour>
      <point x="45" y="300" type="line"/>
      <point x="425" y="300" type="line"/>
      <point x="425" y="359.5" type="line"/>
      <point x="45" y="359.5" type="line"/>
    </contour>
  </outline>
  <guideline angle="90" x="95" y="0"/>
  <guideline angle="90" x="275" y="0"/>
  <guideline angle="90" x="185" y="0"/>
</glyph>
<glyph name="quoteleft" format="2">
  <advance width="150"/>
  <unicode hex="2018"/>
  <outline>
    <contour>
      <point x="110" y="670" type="line"/>
      <point x="85" y="670" type="line"/>
      <point x="105" y="745" type="line"/>
      <point x="70" y="745" type="line"/>
      <point x="40" y="662.5" type="line"/>
      <point x="40" y="572.5" type="line"/>
      <point x="110" y="572.5" type="line"/>
    </contour>
  </outline>
</glyph>
<glyph name="quoteright" format="2">
  <advance width="150"/>
  <unicode hex="2019"/>
  <outline>
    <contour>
      <point x="40" y="647.5" type="line"/>
      <point x="65" y="647.5" type="line"/>
      <point x="45" y="572.5" type="line"/>
      <point x="80" y="572.5" type="line"/>
      <point x="110" y="655" type="line"/>
      <point x="110" y="745" type="line"/>
      <point x="40" y="745" type="line"/>
    </contour>
  </outline>
</glyph>
<glyph name="quotesinglbase" format="2">
  <advance width="150"/>
  <unicode hex="201A"/>
  <outline>
    <contour>
      <point x="40" y="75" type="line"/>
      <point x="65" y="75" type="line"/>
      <point x="45" y="0" type="line"/>
      <point x="80" y="0" type="line"/>
      <point x="110" y="82.5" type="line"/>
      <point x="110" y="172.5" type="line"/>
      <point x="40" y="172.5" type="line"/>
    </contour>
  </outline>
</glyph>
<glyph name="daggerdbl" format="2">
  <advance width="340"/>
  <unicode hex="2021"/>
  <outline>
    <contour>
      <point x="135" y="0" type="line"/>
      <point x="205" y="0" type="line"/>
      <point x="205" y="745" type="line"/>
      <point x="135" y="745" type="line"/>
    </contour>
    <contour>
      <point x="205" y="550.5" type="line"/>
      <point x="312.5" y="550.5" type="line"/>
      <point x="312.5" y="610" type="line"/>
      <point x="205" y="610" type="line"/>
    </contour>
    <contour>
      <point x="27.5" y="550.5" type="line"/>
      <point x="135" y="550.5" type="line"/>
      <point x="135" y="610" type="line"/>
      <point x="27.5" y="610" type="line"/>
    </contour>
    <contour>
      <point x="205" y="135" type="line"/>
      <point x="312.5" y="135" type="line"/>
      <point x="312.5" y="194.5" type="line"/>
      <point x="205" y="194.5" type="line"/>
    </contour>
    <contour>
      <point x="27.5" y="135" type="line"/>
      <point x="135" y="135" type="line"/>
      <point x="135" y="194.5" type="line"/>
      <point x="27.5" y="194.5" type="line"/>
    </contour>
  </outline>
</glyph>
<glyph name="lira" format="2">
  <advance width="300"/>
  <unicode hex="20A4"/>
  <outline>
    <contour>
      <point x="110" y="0" type="line"/>
      <point x="110" y="640" type="line" smooth="yes"/>
      <point x="110" y="672.5"/>
      <point x="122" y="692.5"/>
      <point x="150" y="692.5" type="curve" smooth="yes"/>
      <point x="178" y="692.5"/>
      <point x="190" y="672.5"/>
      <point x="190" y="640" type="curve" smooth="yes"/>
      <point x="190" y="436.5" type="line"/>
      <point x="260" y="436.5" type="line"/>
      <point x="260" y="630" type="line" smooth="yes"/>
      <point x="260" y="715.5"/>
      <point x="222" y="755"/>
      <point x="150" y="755" type="curve" smooth="yes"/>
      <point x="76" y="755"/>
      <point x="40" y="713"/>
      <point x="40" y="630" type="curve" smooth="yes"/>
      <point x="40" y="0" type="line"/>
    </contour>
    <contour>
      <point x="75" y="0" type="line"/>
      <point x="260" y="0" type="line"/>
      <point x="260" y="59.5" type="line"/>
      <point x="75" y="59.5" type="line"/>
    </contour>
    <contour>
      <point x="75" y="310" type="line"/>
      <point x="235" y="310" type="line"/>
      <point x="235" y="369.5" type="line"/>
      <point x="75" y="369.5" type="line"/>
    </contour>
    <contour>
      <point x="75" y="160" type="line"/>
      <point x="235" y="160" type="line"/>
      <point x="235" y="219.5" type="line"/>
      <point x="75" y="219.5" type="line"/>
    </contour>
  </outline>
  <guideline angle="0" x="0" y="125"/>
  <guideline angle="90" x="25" y="0"/>
  <guideline angle="90" x="125" y="0"/>
  <guideline angle="90" x="175" y="0"/>
  <guideline angle="90" x="245" y="0"/>
</glyph>
<glyph name="product" format="2">
  <advance width="300"/>
  <unicode hex="220F"/>
  <outline>
    <contour>
      <point x="40" y="0" type="line"/>
      <point x="110" y="0" type="line"/>
      <point x="110" y="685.5" type="line"/>
      <point x="190" y="685.5" type="line"/>
      <point x="190" y="0" type="line"/>
      <point x="260" y="0" type="line"/>
      <point x="260" y="745" type="line"/>
      <point x="40" y="745" type="line"/>
    </contour>
  </outline>
</glyph>
<glyph name="summation" format="2">
  <advance width="225"/>
  <unicode hex="2211"/>
  <outline>
    <contour>
      <point x="102.5" y="37" type="line"/>
      <point x="102.5" y="17.5" type="line"/>
      <point x="149" y="17.5" type="line"/>
      <point x="188.5" y="225.5" type="line"/>
      <point x="132" y="242" type="line"/>
      <point x="133" y="526" type="line"/>
      <point x="191.5" y="566.5" type="line"/>
      <point x="156" y="703" type="line"/>
      <point x="127.5" y="703" type="line"/>
      <point x="127.5" y="732.5" type="line"/>
      <point x="62.5" y="567" type="line"/>
      <point x="20" y="350.5" type="line"/>
      <point x="62" y="194" type="line"/>
    </contour>
  </outline>
  <guideline angle="90" x="190" y="0"/>
  <guideline angle="90" x="40" y="0"/>
  <guideline angle="0" x="0" y="384"/>
</glyph>
<glyph name="minus" format="2">
  <advance width="300"/>
  <unicode hex="2212"/>
  <outline>
    <contour>
      <point x="25" y="352" type="line"/>
      <point x="275" y="352" type="line"/>
      <point x="275" y="411" type="line"/>
      <point x="25" y="411" type="line"/>
    </contour>
  </outline>
</glyph>
<glyph name="A.alt" format="2">
  <advance width="280"/>
  <outline>
    <contour>
      <point x="182.5" y="595" type="line"/>
      <point x="97.5" y="595" type="line"/>
      <point x="12.5" y="0" type="line"/>
      <point x="82" y="0" type="line"/>
      <point x="118" y="300" type="line"/>
      <point x="123" y="350"/>
      <point x="138" y="491.5"/>
      <point x="138" y="491.5" type="curve"/>
      <point x="140" y="491.5" type="line"/>
      <point x="140" y="491.5"/>
      <point x="155" y="350.5"/>
      <point x="160" y="300" type="curve"/>
      <point x="196" y="0" type="line"/>
      <point x="267.5" y="0" type="line"/>
    </contour>
    <contour>
      <point x="198" y="226.5" type="line"/>
      <point x="78" y="226.5" type="line"/>
      <point x="78" y="167" type="line"/>
      <point x="198" y="167" type="line"/>
    </contour>
  </outline>
  <guideline angle="90" x="25" y="0"/>
  <guideline angle="90" x="225" y="0"/>
</glyph>
<glyph name="B.alt" format="2">
  <advance width="300"/>
  <outline>
    <contour>
      <point x="260" y="125" type="curve" smooth="yes"/>
      <point x="260" y="195.5" type="line" smooth="yes"/>
      <point x="260" y="280"/>
      <point x="223" y="320.5"/>
      <point x="150" y="320.5" type="curve" smooth="yes"/>
      <point x="40" y="320.5" type="line"/>
      <point x="40" y="0" type="line"/>
      <point x="150" y="0" type="line" smooth="yes"/>
      <point x="223" y="0"/>
      <point x="260" y="40.5"/>
    </contour>
    <contour>
      <point x="110" y="271" type="line"/>
      <point x="150" y="271" type="line" smooth="yes"/>
      <point x="177.5" y="271"/>
      <point x="190" y="252"/>
      <point x="190" y="218.5" type="curve" smooth="yes"/>
      <point x="190" y="112" type="line" smooth="yes"/>
      <point x="190" y="78.5"/>
      <point x="177.5" y="59.5"/>
      <point x="150" y="59.5" type="curve" smooth="yes"/>
      <point x="110" y="59.5" type="line"/>
    </contour>
    <contour>
      <point x="255" y="470" type="line" smooth="yes"/>
      <point x="255" y="554.5"/>
      <point x="218" y="595"/>
      <point x="145" y="595" type="curve" smooth="yes"/>
      <point x="40" y="595" type="line"/>
      <point x="40" y="278" type="line"/>
      <point x="145" y="278" type="line" smooth="yes"/>
      <point x="218" y="278"/>
      <point x="255" y="318.5"/>
      <point x="255" y="403" type="curve" smooth="yes"/>
    </contour>
    <contour>
      <point x="110" y="535.5" type="line"/>
      <point x="145" y="535.5" type="line" smooth="yes"/>
      <point x="172.5" y="535.5"/>
      <point x="185" y="516.5"/>
      <point x="185" y="483" type="curve" smooth="yes"/>
      <point x="185" y="382.5" type="line" smooth="yes"/>
      <point x="185" y="349"/>
      <point x="172.5" y="330"/>
      <point x="145" y="330" type="curve" smooth="yes"/>
      <point x="110" y="330" type="line"/>
    </contour>
  </outline>
</glyph>
<glyph name="C.alt" format="2">
  <advance width="300"/>
  <outline>
    <contour>
      <point x="190" y="265" type="line"/>
      <point x="190" y="105" type="line" smooth="yes"/>
      <point x="190" y="73"/>
      <point x="178.5" y="52.5"/>
      <point x="150" y="52.5" type="curve" smooth="yes"/>
      <point x="122.5" y="52.5"/>
      <point x="110" y="72"/>
      <point x="110" y="105" type="curve" smooth="yes"/>
      <point x="110" y="490" type="line" smooth="yes"/>
      <point x="110" y="522.5"/>
      <point x="122" y="542.5"/>
      <point x="150" y="542.5" type="curve" smooth="yes"/>
      <point x="178" y="542.5"/>
      <point x="190" y="522.5"/>
      <point x="190" y="490" type="curve" smooth="yes"/>
      <point x="190" y="359" type="line"/>
      <point x="260" y="359" type="line"/>
      <point x="260" y="480" type="line" smooth="yes"/>
      <point x="260" y="565.5"/>
      <point x="222" y="605"/>
      <point x="150" y="605" type="curve" smooth="yes"/>
      <point x="76" y="605"/>
      <point x="40" y="563"/>
      <point x="40" y="480" type="curve" smooth="yes"/>
      <point x="40" y="115" type="line" smooth="yes"/>
      <point x="40" y="30.5"/>
      <point x="77" y="-10"/>
      <point x="150" y="-10" type="curve" smooth="yes"/>
      <point x="225" y="-10"/>
      <point x="260" y="33.5"/>
      <point x="260" y="115" type="curve" smooth="yes"/>
      <point x="260" y="265" type="line"/>
    </contour>
  </outline>
  <guideline angle="0" x="0" y="125"/>
  <guideline angle="90" x="25" y="0"/>
  <guideline angle="90" x="125" y="0"/>
  <guideline angle="90" x="175" y="0"/>
  <guideline angle="90" x="275" y="0"/>
</glyph>
<glyph name="D.alt" format="2">
  <advance width="300"/>
  <outline>
    <contour>
      <point x="260" y="125" type="curve" smooth="yes"/>
      <point x="260" y="470" type="line" smooth="yes"/>
      <point x="260" y="554.5"/>
      <point x="223" y="595"/>
      <point x="150" y="595" type="curve" smooth="yes"/>
      <point x="40" y="595" type="line"/>
      <point x="40" y="0" type="line"/>
      <point x="150" y="0" type="line" smooth="yes"/>
      <point x="223" y="0"/>
      <point x="260" y="40.5"/>
    </contour>
    <contour>
      <point x="110" y="535.5" type="line"/>
      <point x="150" y="535.5" type="line" smooth="yes"/>
      <point x="177.5" y="535.5"/>
      <point x="190" y="516.5"/>
      <point x="190" y="483" type="curve" smooth="yes"/>
      <point x="190" y="112" type="line" smooth="yes"/>
      <point x="190" y="78.5"/>
      <point x="177.5" y="59.5"/>
      <point x="150" y="59.5" type="curve" smooth="yes"/>
      <point x="110" y="59.5" type="line"/>
    </contour>
  </outline>
  <guideline angle="0" x="0" y="125"/>
  <guideline angle="0" x="0" y="635"/>
  <guideline angle="90" x="25" y="0"/>
  <guideline angle="90" x="125" y="0"/>
  <guideline angle="90" x="175" y="0"/>
  <guideline angle="90" x="275" y="0"/>
</glyph>
<glyph name="E.alt" format="2">
  <advance width="240"/>
  <outline>
    <contour>
      <point x="40" y="0" type="line"/>
      <point x="110" y="0" type="line"/>
      <point x="110" y="595" type="line"/>
      <point x="40" y="595" type="line"/>
    </contour>
    <contour>
      <point x="110" y="535.5" type="line"/>
      <point x="210" y="535.5" type="line"/>
      <point x="210" y="595" type="line"/>
      <point x="110" y="595" type="line"/>
    </contour>
    <contour>
      <point x="110" y="0" type="line"/>
      <point x="210" y="0" type="line"/>
      <point x="210" y="59" type="line"/>
      <point x="110" y="59" type="line"/>
    </contour>
    <contour>
      <point x="80" y="277.5" type="line"/>
      <point x="185" y="277.5" type="line"/>
      <point x="185" y="337" type="line"/>
      <point x="80" y="337" type="line"/>
    </contour>
  </outline>
  <guideline angle="90" x="25" y="0"/>
  <guideline angle="90" x="225" y="0"/>
</glyph>
<glyph name="F.alt" format="2">
  <advance width="220"/>
  <outline>
    <contour>
      <point x="40" y="0" type="line"/>
      <point x="110" y="0" type="line"/>
      <point x="110" y="595" type="line"/>
      <point x="40" y="595" type="line"/>
    </contour>
    <contour>
      <point x="110" y="535.5" type="line"/>
      <point x="200" y="535.5" type="line"/>
      <point x="200" y="595" type="line"/>
      <point x="110" y="595" type="line"/>
    </contour>
    <contour>
      <point x="80" y="280" type="line"/>
      <point x="185" y="280" type="line"/>
      <point x="185" y="339.5" type="line"/>
      <point x="80" y="339.5" type="line"/>
    </contour>
  </outline>
  <guideline angle="0" x="0" y="382"/>
</glyph>
<glyph name="H.alt" format="2">
  <advance width="300"/>
  <outline>
    <contour>
      <point x="40" y="0" type="line"/>
      <point x="110" y="0" type="line"/>
      <point x="110" y="595" type="line"/>
      <point x="40" y="595" type="line"/>
    </contour>
    <contour>
      <point x="190" y="0" type="line"/>
      <point x="260" y="0" type="line"/>
      <point x="260" y="595" type="line"/>
      <point x="190" y="595" type="line"/>
    </contour>
    <contour>
      <point x="75" y="280" type="line"/>
      <point x="210" y="280" type="line"/>
      <point x="210" y="339.5" type="line"/>
      <point x="75" y="339.5" type="line"/>
    </contour>
  </outline>
</glyph>
<glyph name="I.alt" format="2">
  <advance width="150"/>
  <outline>
    <contour>
      <point x="40" y="0" type="line"/>
      <point x="110" y="0" type="line"/>
      <point x="110" y="595" type="line"/>
      <point x="40" y="595" type="line"/>
    </contour>
  </outline>
  <guideline angle="90" x="25" y="0"/>
  <guideline angle="90" x="95" y="0"/>
  <guideline angle="90" x="55" y="0"/>
  <guideline angle="90" x="125" y="0"/>
</glyph>
<glyph name="J.alt" format="2">
  <advance width="300"/>
  <outline>
    <contour>
      <point x="190" y="595" type="line"/>
      <point x="190" y="105" type="line" smooth="yes"/>
      <point x="190" y="73"/>
      <point x="178.5" y="52.5"/>
      <point x="150" y="52.5" type="curve" smooth="yes"/>
      <point x="122.5" y="52.5"/>
      <point x="110" y="72"/>
      <point x="110" y="105" type="curve" smooth="yes"/>
      <point x="110" y="275" type="line"/>
      <point x="40" y="275" type="line"/>
      <point x="40" y="115" type="line" smooth="yes"/>
      <point x="40" y="30.5"/>
      <point x="77" y="-10"/>
      <point x="150" y="-10" type="curve" smooth="yes"/>
      <point x="225" y="-10"/>
      <point x="260" y="33.5"/>
      <point x="260" y="115" type="curve" smooth="yes"/>
      <point x="260" y="595" type="line"/>
    </contour>
  </outline>
  <guideline angle="0" x="0" y="125"/>
  <guideline angle="90" x="25" y="0"/>
  <guideline angle="90" x="125" y="0"/>
  <guideline angle="90" x="175" y="0"/>
  <guideline angle="90" x="275" y="0"/>
</glyph>
<glyph name="K.alt" format="2">
  <advance width="290"/>
  <outline>
    <contour>
      <point x="203.5" y="0" type="line"/>
      <point x="275" y="0" type="line"/>
      <point x="179" y="339" type="line"/>
      <point x="265" y="595" type="line"/>
      <point x="193" y="595" type="line"/>
      <point x="124" y="390" type="line"/>
      <point x="114" y="357.5"/>
      <point x="107.5" y="314"/>
      <point x="107.5" y="314" type="curve"/>
      <point x="105.5" y="314" type="line"/>
      <point x="105.5" y="314"/>
      <point x="110" y="360"/>
      <point x="110" y="392.5" type="curve" smooth="yes"/>
      <point x="110" y="595" type="line"/>
      <point x="40" y="595" type="line"/>
      <point x="40" y="0" type="line"/>
      <point x="110" y="0" type="line"/>
      <point x="110" y="179" type="line"/>
      <point x="134.5" y="262" type="line"/>
    </contour>
  </outline>
</glyph>
<glyph name="L.alt" format="2">
  <advance width="215"/>
  <outline>
    <contour>
      <point x="40" y="0" type="line"/>
      <point x="110" y="0" type="line"/>
      <point x="110" y="595" type="line"/>
      <point x="40" y="595" type="line"/>
    </contour>
    <contour>
      <point x="110" y="0" type="line"/>
      <point x="190" y="0" type="line"/>
      <point x="190" y="59.5" type="line"/>
      <point x="110" y="59.5" type="line"/>
    </contour>
  </outline>
</glyph>
<glyph name="M.alt" format="2">
  <advance width="370"/>
  <outline>
    <contour>
      <point x="184" y="177.5" type="line"/>
      <point x="184" y="177.5"/>
      <point x="181.5" y="228.5"/>
      <point x="177.5" y="249.5" type="curve" smooth="yes"/>
      <point x="110" y="595" type="line"/>
      <point x="45" y="595" type="line"/>
      <point x="45" y="0" type="line"/>
      <point x="115" y="0" type="line"/>
      <point x="115" y="157" type="line" smooth="yes"/>
      <point x="115" y="226"/>
      <point x="109" y="329"/>
      <point x="104" y="381" type="curve"/>
      <point x="107" y="382" type="line"/>
      <point x="109.5" y="356"/>
      <point x="122.5" y="283"/>
      <point x="132" y="227.5" type="curve" smooth="yes"/>
      <point x="157.5" y="78.5" type="line"/>
      <point x="212.5" y="78.5" type="line"/>
      <point x="238" y="227.5" type="line" smooth="yes"/>
      <point x="247.5" y="283"/>
      <point x="260.5" y="356"/>
      <point x="263" y="382" type="curve"/>
      <point x="266" y="381" type="line"/>
      <point x="261" y="329"/>
      <point x="255" y="226"/>
      <point x="255" y="156" type="curve" smooth="yes"/>
      <point x="255" y="0" type="line"/>
      <point x="325" y="0" type="line"/>
      <point x="325" y="595" type="line"/>
      <point x="260" y="595" type="line"/>
      <point x="192.5" y="249.5" type="line" smooth="yes"/>
      <point x="188.5" y="228"/>
      <point x="186" y="177.5"/>
      <point x="186" y="177.5" type="curve"/>
    </contour>
  </outline>
  <guideline angle="90" x="95" y="0"/>
  <guideline angle="90" x="275" y="0"/>
  <guideline angle="90" x="185" y="0"/>
</glyph>
<glyph name="N.alt" format="2">
  <advance width="310"/>
  <outline>
    <contour>
      <point x="104.5" y="393.5" type="line"/>
      <point x="205" y="0" type="line"/>
      <point x="270" y="0" type="line"/>
      <point x="270" y="595" type="line"/>
      <point x="200" y="595" type="line"/>
      <point x="200" y="387" type="line" smooth="yes"/>
      <point x="200" y="287"/>
      <point x="208.5" y="213"/>
      <point x="208.5" y="213" type="curve"/>
      <point x="206.5" y="212" type="line"/>
      <point x="105" y="595" type="line"/>
      <point x="40" y="595" type="line"/>
      <point x="40" y="0" type="line"/>
      <point x="110" y="0" type="line"/>
      <point x="110" y="219.5" type="line" smooth="yes"/>
      <point x="110" y="298.5"/>
      <point x="102.5" y="392.5"/>
      <point x="102.5" y="392.5" type="curve"/>
    </contour>
  </outline>
  <guideline angle="90" x="95" y="0"/>
  <guideline angle="90" x="215" y="0"/>
</glyph>
<glyph name="P.alt" format="2">
  <advance width="300"/>
  <outline>
    <contour>
      <point x="260" y="303" type="curve" smooth="yes"/>
      <point x="260" y="470" type="line" smooth="yes"/>
      <point x="260" y="554.5"/>
      <point x="223" y="595"/>
      <point x="150" y="595" type="curve" smooth="yes"/>
      <point x="40" y="595" type="line"/>
      <point x="40" y="178" type="line"/>
      <point x="150" y="178" type="line" smooth="yes"/>
      <point x="223" y="178"/>
      <point x="260" y="218.5"/>
    </contour>
    <contour>
      <point x="110" y="535.5" type="line"/>
      <point x="150" y="535.5" type="line" smooth="yes"/>
      <point x="177.5" y="535.5"/>
      <point x="190" y="516.5"/>
      <point x="190" y="483" type="curve" smooth="yes"/>
      <point x="190" y="290" type="line" smooth="yes"/>
      <point x="190" y="256.5"/>
      <point x="177.5" y="237.5"/>
      <point x="150" y="237.5" type="curve" smooth="yes"/>
      <point x="110" y="237.5" type="line"/>
    </contour>
    <contour>
      <point x="40" y="0" type="line"/>
      <point x="110" y="0" type="line"/>
      <point x="110" y="178" type="line"/>
      <point x="40" y="178" type="line"/>
    </contour>
  </outline>
  <guideline angle="90" x="55" y="0"/>
  <guideline angle="90" x="95" y="0"/>
</glyph>
<glyph name="Q.alt" format="2">
  <advance width="300"/>
  <outline>
    <component base="O.alt"/>
    <contour>
      <point x="117.5" y="-70" type="line"/>
      <point x="182.5" y="-70" type="line"/>
      <point x="182.5" y="35" type="line"/>
      <point x="117.5" y="35" type="line"/>
    </contour>
  </outline>
  <guideline angle="0" x="0" y="125"/>
  <guideline angle="90" x="25" y="0"/>
  <guideline angle="90" x="125" y="0"/>
  <guideline angle="90" x="175" y="0"/>
  <guideline angle="90" x="275" y="0"/>
</glyph>
<glyph name="R.alt" format="2">
  <advance width="300"/>
  <outline>
    <contour>
      <point x="213.5" y="0" type="line"/>
      <point x="282.5" y="0" type="line"/>
      <point x="256.5" y="106" type="line" smooth="yes"/>
      <point x="235.5" y="191.5"/>
      <point x="202.5" y="234.5"/>
      <point x="202.5" y="234.5" type="curve"/>
      <point x="153.5" y="234.5" type="line"/>
    </contour>
    <contour>
      <point x="260" y="322.5" type="curve" smooth="yes"/>
      <point x="260" y="470" type="line" smooth="yes"/>
      <point x="260" y="554.5"/>
      <point x="223" y="595"/>
      <point x="150" y="595" type="curve" smooth="yes"/>
      <point x="40" y="595" type="line"/>
      <point x="40" y="197.5" type="line"/>
      <point x="150" y="197.5" type="line" smooth="yes"/>
      <point x="223" y="197.5"/>
      <point x="260" y="238"/>
    </contour>
    <contour>
      <point x="110" y="535.5" type="line"/>
      <point x="150" y="535.5" type="line" smooth="yes"/>
      <point x="177.5" y="535.5"/>
      <point x="190" y="516.5"/>
      <point x="190" y="483" type="curve" smooth="yes"/>
      <point x="190" y="309.5" type="line" smooth="yes"/>
      <point x="190" y="276"/>
      <point x="177.5" y="257"/>
      <point x="150" y="257" type="curve" smooth="yes"/>
      <point x="110" y="257" type="line"/>
    </contour>
    <contour>
      <point x="40" y="0" type="line"/>
      <point x="110" y="0" type="line"/>
      <point x="110" y="197.5" type="line"/>
      <point x="40" y="197.5" type="line"/>
    </contour>
  </outline>
  <guideline angle="90" x="175" y="0"/>
  <guideline angle="90" x="275" y="0"/>
</glyph>
<glyph name="S.alt" format="2">
  <advance width="290"/>
  <outline>
    <contour>
      <point x="255" y="416.5" type="line"/>
      <point x="255" y="480" type="line" smooth="yes"/>
      <point x="255" y="553.5"/>
      <point x="226" y="605"/>
      <point x="145" y="605" type="curve" smooth="yes"/>
      <point x="64" y="605"/>
      <point x="35" y="553.5"/>
      <point x="35" y="480" type="curve" smooth="yes"/>
      <point x="35" y="437.5" type="line" smooth="yes"/>
      <point x="35" y="411.5"/>
      <point x="45.5" y="386"/>
      <point x="57.5" y="371.5" type="curve" smooth="yes"/>
      <point x="176" y="221.5" type="line" smooth="yes"/>
      <point x="180.5" y="215.5"/>
      <point x="185" y="207.5"/>
      <point x="185" y="196" type="curve" smooth="yes"/>
      <point x="185" y="104.5" type="line" smooth="yes"/>
      <point x="185" y="71.5"/>
      <point x="172" y="52.5"/>
      <point x="145" y="52.5" type="curve" smooth="yes"/>
      <point x="118" y="52.5"/>
      <point x="105" y="71.5"/>
      <point x="105" y="105" type="curve" smooth="yes"/>
      <point x="105" y="227.5" type="line"/>
      <point x="35" y="227.5" type="line"/>
      <point x="35" y="115" type="line" smooth="yes"/>
      <point x="35" y="36"/>
      <point x="68" y="-10"/>
      <point x="145" y="-10" type="curve" smooth="yes"/>
      <point x="223.5" y="-10"/>
      <point x="255" y="38"/>
      <point x="255" y="115.5" type="curve" smooth="yes"/>
      <point x="255" y="191" type="line" smooth="yes"/>
      <point x="255" y="218.5"/>
      <point x="247" y="240.5"/>
      <point x="232" y="259" type="curve" smooth="yes"/>
      <point x="114" y="409.5" type="line"/>
      <point x="109" y="415"/>
      <point x="105" y="423"/>
      <point x="105" y="432.5" type="curve" smooth="yes"/>
      <point x="105" y="490" type="line" smooth="yes"/>
      <point x="105" y="525.5"/>
      <point x="119" y="542.5"/>
      <point x="145" y="542.5" type="curve" smooth="yes"/>
      <point x="170.5" y="542.5"/>
      <point x="185" y="526"/>
      <point x="185" y="490" type="curve" smooth="yes"/>
      <point x="185" y="416.5" type="line"/>
    </contour>
  </outline>
  <guideline angle="0" x="0" y="625"/>
  <guideline angle="0" x="0" y="635"/>
  <guideline angle="0" x="0" y="105"/>
  <guideline angle="0" x="0" y="115"/>
</glyph>
<glyph name="T.alt" format="2">
  <advance width="240"/>
  <outline>
    <contour>
      <point x="85" y="0" type="line"/>
      <point x="155" y="0" type="line"/>
      <point x="155" y="595" type="line"/>
      <point x="85" y="595" type="line"/>
    </contour>
    <contour>
      <point x="155" y="535.5" type="line"/>
      <point x="227.5" y="535.5" type="line"/>
      <point x="227.5" y="595" type="line"/>
      <point x="155" y="595" type="line"/>
    </contour>
    <contour>
      <point x="12.5" y="535.5" type="line"/>
      <point x="85" y="535.5" type="line"/>
      <point x="85" y="595" type="line"/>
      <point x="12.5" y="595" type="line"/>
    </contour>
  </outline>
</glyph>
<glyph name="U.alt" format="2">
  <advance width="300"/>
  <outline>
    <contour>
      <point x="190" y="595" type="line"/>
      <point x="190" y="105" type="line" smooth="yes"/>
      <point x="190" y="73"/>
      <point x="178.5" y="52.5"/>
      <point x="150" y="52.5" type="curve" smooth="yes"/>
      <point x="122.5" y="52.5"/>
      <point x="110" y="72"/>
      <point x="110" y="105" type="curve" smooth="yes"/>
      <point x="110" y="595" type="line"/>
      <point x="40" y="595" type="line"/>
      <point x="40" y="115" type="line" smooth="yes"/>
      <point x="40" y="30.5"/>
      <point x="77" y="-10"/>
      <point x="150" y="-10" type="curve" smooth="yes"/>
      <point x="225" y="-10"/>
      <point x="260" y="33.5"/>
      <point x="260" y="115" type="curve" smooth="yes"/>
      <point x="260" y="595" type="line"/>
    </contour>
  </outline>
  <guideline angle="90" x="55" y="0"/>
  <guideline angle="90" x="245" y="0"/>
</glyph>
<glyph name="V.alt" format="2">
  <advance width="280"/>
  <outline>
    <contour>
      <point x="97.5" y="0" type="line"/>
      <point x="182.5" y="0" type="line"/>
      <point x="267.5" y="595" type="line"/>
      <point x="198" y="595" type="line"/>
      <point x="162" y="295" type="line"/>
      <point x="157" y="245"/>
      <point x="142" y="103.5"/>
      <point x="142" y="103.5" type="curve"/>
      <point x="140" y="103.5" type="line"/>
      <point x="140" y="103.5"/>
      <point x="125" y="244.5"/>
      <point x="120" y="295" type="curve"/>
      <point x="84" y="595" type="line"/>
      <point x="12.5" y="595" type="line"/>
    </contour>
  </outline>
  <guideline angle="0" x="0" y="175"/>
  <guideline angle="90" x="140" y="0"/>
</glyph>
<glyph name="W.alt" format="2">
  <advance width="380"/>
  <outline>
    <contour>
      <point x="260" y="0" type="line"/>
      <point x="325" y="0" type="line"/>
      <point x="350" y="595" type="line"/>
      <point x="280" y="595" type="line"/>
      <point x="273.5" y="256" type="line" smooth="yes"/>
      <point x="273" y="230.5"/>
      <point x="275" y="171"/>
      <point x="275" y="171" type="curve"/>
      <point x="273" y="170.5" type="line"/>
      <point x="273" y="170.5"/>
      <point x="268" y="214"/>
      <point x="265" y="231" type="curve" smooth="yes"/>
      <point x="220" y="491" type="line"/>
      <point x="160" y="491" type="line"/>
      <point x="114.5" y="231" type="line" smooth="yes"/>
      <point x="111.5" y="214"/>
      <point x="106.5" y="170.5"/>
      <point x="106.5" y="170.5" type="curve"/>
      <point x="104.5" y="171" type="line"/>
      <point x="104.5" y="171"/>
      <point x="106.5" y="230.5"/>
      <point x="106" y="256" type="curve" smooth="yes"/>
      <point x="100" y="595" type="line"/>
      <point x="30" y="595" type="line"/>
      <point x="55" y="0" type="line"/>
      <point x="120" y="0" type="line"/>
      <point x="184.5" y="322" type="line" smooth="yes"/>
      <point x="188" y="339"/>
      <point x="189" y="378.5"/>
      <point x="189" y="378.5" type="curve"/>
      <point x="191" y="378.5" type="line"/>
      <point x="191" y="378.5"/>
      <point x="192" y="339"/>
      <point x="195.5" y="322" type="curve" smooth="yes"/>
    </contour>
  </outline>
  <guideline angle="0" x="0" y="280"/>
  <guideline angle="0" x="0" y="460"/>
  <guideline angle="0" x="0" y="217"/>
  <guideline angle="0" x="0" y="167"/>
</glyph>
<glyph name="X.alt" format="2">
  <advance width="300"/>
  <outline>
    <contour>
      <point x="275" y="595" type="line"/>
      <point x="205" y="595" type="line"/>
      <point x="163.5" y="440" type="line" smooth="yes"/>
      <point x="155.5" y="409"/>
      <point x="151.5" y="363"/>
      <point x="151.5" y="363" type="curve"/>
      <point x="149.5" y="363" type="line"/>
      <point x="149.5" y="363"/>
      <point x="145.5" y="409"/>
      <point x="137.5" y="440" type="curve" smooth="yes"/>
      <point x="96" y="595" type="line"/>
      <point x="25" y="595" type="line"/>
      <point x="103.5" y="312.5" type="line"/>
      <point x="15" y="0" type="line"/>
      <point x="86" y="0" type="line"/>
      <point x="134" y="182.5" type="line" smooth="yes"/>
      <point x="141" y="211"/>
      <point x="149.5" y="263.5"/>
      <point x="149.5" y="263.5" type="curve"/>
      <point x="151.5" y="263.5" type="line"/>
      <point x="151.5" y="263.5"/>
      <point x="160" y="211"/>
      <point x="167" y="182.5" type="curve" smooth="yes"/>
      <point x="215" y="0" type="line"/>
      <point x="285" y="0" type="line"/>
      <point x="196" y="312.5" type="line"/>
    </contour>
  </outline>
  <guideline angle="0" x="0" y="591"/>
  <guideline angle="0" x="0" y="213"/>
  <guideline angle="0" x="0" y="468"/>
  <guideline angle="0" x="0" y="320"/>
  <guideline angle="0" x="0" y="740"/>
  <guideline angle="90" x="30" y="0"/>
  <guideline angle="90" x="270" y="0"/>
</glyph>
<glyph name="Y.alt" format="2">
  <advance width="270"/>
  <outline>
    <contour>
      <point x="100" y="0" type="line"/>
      <point x="170" y="0" type="line"/>
      <point x="170" y="153" type="line"/>
      <point x="255" y="595" type="line"/>
      <point x="185" y="595" type="line"/>
      <point x="146" y="338" type="line" smooth="yes"/>
      <point x="140" y="297"/>
      <point x="136.5" y="238"/>
      <point x="136.5" y="238" type="curve"/>
      <point x="134.5" y="238" type="line"/>
      <point x="134.5" y="238"/>
      <point x="131" y="297"/>
      <point x="125" y="338" type="curve" smooth="yes"/>
      <point x="86" y="595" type="line"/>
      <point x="15" y="595" type="line"/>
      <point x="100" y="153" type="line"/>
    </contour>
  </outline>
  <guideline angle="0" x="0" y="517"/>
  <guideline angle="0" x="0" y="490"/>
  <guideline angle="0" x="0" y="325"/>
  <guideline angle="90" x="135" y="0"/>
</glyph>
<glyph name="Z.alt" format="2">
  <advance width="230"/>
  <outline>
    <contour>
      <point x="22.5" y="535.5" type="line"/>
      <point x="134" y="535.5" type="line"/>
      <point x="207.5" y="545.5" type="line"/>
      <point x="207.5" y="595" type="line"/>
      <point x="22.5" y="595" type="line"/>
    </contour>
    <contour>
      <point x="17.5" y="0" type="line"/>
      <point x="212.5" y="0" type="line"/>
      <point x="212.5" y="59.5" type="line"/>
      <point x="91" y="59.5" type="line"/>
      <point x="17.5" y="49.5" type="line"/>
    </contour>
    <contour>
      <point x="17.5" y="49.5" type="line"/>
      <point x="91" y="59.5" type="line"/>
      <point x="207.5" y="545.5" type="line"/>
      <point x="134" y="535.5" type="line"/>
    </contour>
  </outline>
  <guideline angle="90" x="190" y="0"/>
  <guideline angle="90" x="40" y="0"/>
</glyph>
